<?xml version="1.0" encoding="utf-8"?>
<!-- Generator: Adobe Illustrator 24.0.0, SVG Export Plug-In . SVG Version: 6.00 Build 0)  -->
<svg version="1.1" id="Layer_1" xmlns="http://www.w3.org/2000/svg" xmlns:xlink="http://www.w3.org/1999/xlink" x="0px" y="0px"
	 viewBox="0 0 129 71" style="enable-background:new 0 0 129 71;" xml:space="preserve">
<style type="text/css">
	.st0{fill:#817754;}
	.st1{fill:#0E452C;}
	.st2{fill:#FFFFFF;}
	.st3{fill:#827755;}
	.st4{clip-path:url(#SVGID_2_);}
</style>
<g>
	<g>
		<polygon class="st0" points="128.1,33 0.9,33 0,31.7 129,31.7 		"/>
		<polygon class="st0" points="9.8,62.1 119.3,62.1 120.3,63.5 8.7,63.5 		"/>
		<g>
			<g>
				<g>
					<g>
						<polygon class="st0" points="76.2,58.4 74.6,58.4 11.3,58.4 11.3,59 74.6,59 76.2,59 117.5,59 117.5,58.4 						"/>
					</g>
				</g>
				<g>
					<g>
						<polygon class="st0" points="74.6,59.4 11.3,59.4 11.3,59.6 74.6,59.6 76.2,59.6 117.4,59.6 117.4,59.4 76.2,59.4 						"/>
					</g>
				</g>
				<g>
					<g>
						<g>
							<polygon class="st0" points="51.1,36.7 53,36.7 123.8,36.7 123.8,36.1 53,36.1 51.1,36.1 5,36.1 5,36.7 							"/>
						</g>
					</g>
					<g>
						<g>
							<polygon class="st0" points="53,35.7 123.8,35.7 123.8,35.5 53,35.5 51.2,35.5 5,35.5 5,35.7 51.2,35.7 							"/>
						</g>
					</g>
				</g>
			</g>
			<g>
				<g>
					<g>
						<path class="st1" d="M16.2,55.1v-13h5.8c2.8,0,4.3,1.2,4.3,3.3c0,1.3-0.6,2.3-1.8,2.7L24,48.2l0.7,0.2c1.1,0.3,2.4,1.1,2.4,3
							c0,2.4-1.8,3.7-5.1,3.7H16.2z M19.4,52.7h2.5c1.2,0,1.8-0.5,1.8-1.6c0-1.1-0.6-1.6-1.8-1.6h-2.5V52.7z M19.4,47.3h2.2
							c1.4,0,1.6-0.8,1.6-1.4c0-1-0.5-1.4-1.6-1.4h-2.2V47.3z"/>
					</g>
				</g>
				<g>
					<g>
						<path class="st0" d="M22.1,42.3c2.6,0,4.1,1.1,4.1,3.1c0,1.3-0.6,2.1-1.6,2.5l-1.3,0.5l1.3,0.4c1,0.3,2.2,1,2.2,2.8
							c0,2.2-1.7,3.5-4.9,3.5h-5.4V42.3H22.1 M19.2,47.5h0.4h1.9c1.6,0,1.9-1,1.9-1.6c0-1.1-0.6-1.7-1.8-1.7h-2h-0.4v0.4v2.4V47.5
							 M19.2,52.9h0.4h2.2c1.7,0,2.1-1,2.1-1.8c0-0.8-0.4-1.8-2.1-1.8h-2.2h-0.4v0.4v2.8V52.9 M22.1,41.8H16v13.4h5.9
							c3.5,0,5.3-1.4,5.3-3.9c0-1.9-1.2-2.8-2.5-3.2c1.1-0.4,1.9-1.3,1.9-2.9C26.6,43.1,24.8,41.8,22.1,41.8 M19.6,47.1v-2.4h2
							c1,0,1.4,0.5,1.4,1.2c0,0.8-0.4,1.2-1.4,1.2H19.6z M19.6,52.4v-2.8h2.2c1.2,0,1.6,0.5,1.6,1.4c0,0.9-0.4,1.4-1.6,1.4H19.6z"/>
					</g>
				</g>
				<g>
					<g>
						<polygon class="st1" points="73.5,55.1 73.2,49 69.4,53.2 65.5,49 65.1,55.1 61.9,55.1 62.7,42 69.4,49.2 76,42 76.7,55.1 
													"/>
					</g>
				</g>
				<g>
					<g>
						<path class="st0" d="M62.9,42.5l6.2,6.6l0.3,0.4l0.3-0.4l6-6.6l0.7,12.3h-2.8l-0.3-5.3l-0.1-1.1l-0.7,0.8l-3.3,3.6L66,49.2
							l-0.7-0.8l-0.1,1l-0.3,5.3h-2.8L62.9,42.5 M76.1,41.6c0,0-0.1,0-0.1,0.1l-6.6,7.2l-6.7-7.2c0,0-0.1-0.1-0.1-0.1
							c0,0-0.1,0-0.1,0.1l-0.8,13.6h3.7l0.3-5.7l3.6,3.9c0,0,0.1,0,0.1,0c0,0,0.1,0,0.1,0l3.5-3.9l0.3,5.7H77L76.1,41.6
							C76.1,41.6,76.1,41.6,76.1,41.6"/>
					</g>
				</g>
				<g>
					<g>
						<rect x="79.2" y="42.1" class="st1" width="3.3" height="13"/>
					</g>
				</g>
				<g>
					<g>
						<path class="st0" d="M82.3,54.8h-2.9V42.3h2.9V54.8z M82.7,41.8H79v13.4h3.7V41.8z"/>
					</g>
				</g>
				<g>
					<g>
						<polygon class="st1" points="88,48.1 88,55.1 84.9,55.1 84.9,41.8 94,49 94,42.1 97,42.1 97,55.3 						"/>
					</g>
				</g>
				<g>
					<g>
						<path class="st0" d="M96.8,42.3l0,12.6l-8.3-6.6l-0.7-0.6v0.9v6.3h-2.6V42.3l8.3,6.6l0.7,0.6v-0.9v-6.3H96.8 M84.8,41.5
							c-0.1,0-0.1,0.1-0.1,0.1v13.6h3.5v-6.7l8.8,6.9c0.1,0.1,0.2,0.1,0.2,0.1c0.1,0,0.1-0.1,0.1-0.1V41.8h-3.5v6.7l-8.8-7
							C84.9,41.6,84.8,41.5,84.8,41.5"/>
					</g>
				</g>
				<g>
					<g>
						<path class="st1" d="M37.3,43l-0.7-1.3h0.4c0.7,0,1.1-0.3,1.1-0.9c0-0.5-0.4-0.8-0.9-0.8c-0.4,0-0.8,0.2-1,0.5l-1.1-0.6
							c0.4-0.6,1.2-1,2.2-1c1.4,0,2.3,0.7,2.3,1.7c0,1-0.5,1.6-1.6,1.8l-0.2,0V43H37.3z"/>
					</g>
				</g>
				<g>
					<g>
						<path class="st0" d="M37.3,39.1c1.2,0,2.1,0.6,2.1,1.5c0,0.9-0.4,1.4-1.4,1.6l-0.4,0.1v0.4v0.2h-0.1L37,41.9h0.1
							c0.9,0,1.3-0.6,1.3-1.1c0-0.6-0.5-1-1.2-1c-0.4,0-0.8,0.1-1.1,0.5l-0.7-0.4C35.8,39.4,36.5,39.1,37.3,39.1 M37.3,38.7
							c-1.3,0-2.1,0.6-2.5,1.3l1.4,0.8c0.2-0.4,0.5-0.6,0.9-0.6c0.4,0,0.7,0.2,0.7,0.6c0,0.4-0.3,0.7-0.8,0.7h-0.7
							c0,0-0.1,0-0.1,0.1l0.8,1.6c0,0,0.1,0.1,0.1,0.1h0.7c0,0,0.1,0,0.1-0.1v-0.5c1.2-0.2,1.8-0.9,1.8-2
							C39.8,39.5,38.8,38.7,37.3,38.7"/>
					</g>
				</g>
				<g>
					<g>
						<path class="st1" d="M48.3,55.2c-4.1,0-7.3-2.9-7.3-6.7c0-3.7,3.2-6.7,7.3-6.7c4.1,0,7.3,2.9,7.3,6.7
							C55.6,52.3,52.4,55.2,48.3,55.2 M48.3,44.6c-2.3,0-3.9,1.6-3.9,4c0,2.4,1.6,4,3.9,4c2.3,0,3.9-1.6,3.9-4
							C52.2,46.2,50.6,44.6,48.3,44.6"/>
					</g>
				</g>
				<g>
					<g>
						<path class="st0" d="M48.3,42.1c4,0,7.1,2.8,7.1,6.4c0,3.6-3.1,6.5-7.1,6.5c-4,0-7.1-2.8-7.1-6.5
							C41.2,44.9,44.3,42.1,48.3,42.1 M48.3,52.8c2.5,0,4.1-1.7,4.1-4.2c0-2.5-1.7-4.2-4.1-4.2c-2.5,0-4.1,1.7-4.1,4.2
							C44.2,51.1,45.8,52.8,48.3,52.8 M48.3,41.7c-4,0-7.5,2.8-7.5,6.9c0,4,3.5,6.9,7.5,6.9c4,0,7.5-2.8,7.5-6.9
							C55.8,44.5,52.3,41.7,48.3,41.7 M48.3,52.3c-2.3,0-3.7-1.7-3.7-3.8c0-2.1,1.3-3.8,3.7-3.8c2.3,0,3.7,1.6,3.7,3.8
							C52,50.7,50.6,52.3,48.3,52.3"/>
					</g>
				</g>
				<g>
					<g>
						<path class="st1" d="M38,55.1l-0.7-1.6h-5.2l-0.7,1.6h-3.2l6.6-13.2l6.5,13.2H38z M33.1,51.3h3.2l-1.6-3.6L33.1,51.3z"/>
					</g>
				</g>
				<g>
					<g>
						<path class="st0" d="M34.8,42.3L41,54.8h-2.9l-0.6-1.4l-0.1-0.3h-0.3h-4.9H32l-0.1,0.3l-0.6,1.4h-2.7L34.8,42.3 M32.8,51.5
							h0.7H36h0.7l-0.3-0.6L35.1,48l-0.4-0.9L34.3,48L33,50.9L32.8,51.5 M34.8,41.5c0,0-0.1,0-0.1,0.1l-6.8,13.7h3.7l0.7-1.6h4.9
							l0.7,1.6h3.9L35,41.6C34.9,41.5,34.9,41.5,34.8,41.5 M33.4,51l1.3-2.8L36,51H33.4z"/>
					</g>
				</g>
				<g>
					<g>
						<polygon class="st1" points="108.1,55.1 108.1,49.8 102.8,49.8 102.8,55.1 99.5,55.1 99.5,42.1 102.8,42.1 102.8,47.2 
							108.1,47.2 108.1,42.1 111.4,42.1 111.4,55.1 						"/>
					</g>
				</g>
				<g>
					<g>
						<path class="st0" d="M111.1,42.3v12.6h-2.9V50v-0.4h-0.4H103h-0.4V50v4.8h-2.9V42.3h2.9V47v0.4h0.4h4.8h0.4V47v-4.7H111.1z
							 M111.6,41.8h-3.7V47H103v-5.2h-3.7v13.4h3.7V50h4.8v5.3h3.7V41.8z"/>
					</g>
				</g>
			</g>
		</g>
	</g>
	<g>
		<g>
			<g>
				<g>
					<path class="st2" d="M64.5,33.6c-7,0-12.6-5.4-12.6-12.1c0-6.7,5.7-12.1,12.6-12.1c7,0,12.6,5.4,12.6,12.1
						C77.1,28.1,71.5,33.6,64.5,33.6"/>
				</g>
			</g>
		</g>
	</g>
	<g>
		<g>
			<g>
				<g>
					<path class="st0" d="M64.5,34.3c-7.4,0-13.4-5.8-13.4-12.9c0-7.1,6-12.9,13.4-12.9c7.4,0,13.4,5.8,13.4,12.9
						C77.9,28.5,71.9,34.3,64.5,34.3 M64.5,8.9c-7.2,0-13.1,5.6-13.1,12.6c0,6.9,5.9,12.6,13.1,12.6c7.2,0,13.1-5.6,13.1-12.6
						C77.6,14.5,71.7,8.9,64.5,8.9"/>
				</g>
				<g>
					<path class="st3" d="M64.5,35.4c-8,0-14.4-6.2-14.4-13.9S56.5,7.5,64.5,7.5s14.4,6.2,14.4,13.9S72.5,35.4,64.5,35.4z M64.5,9.9
						c-6.6,0-12,5.2-12,11.5S57.9,33,64.5,33c6.6,0,12-5.2,12-11.5S71.1,9.9,64.5,9.9z"/>
				</g>
			</g>
		</g>
	</g>
	<g>
		<g>
			<g>
				<g>
					<g>
						<path class="st1" d="M68.4,31.1c-1.5,0-3-0.7-3.8-2l-0.1-0.2l-0.1,0.2c-0.8,1.2-2.3,2-3.8,2c-2.5,0-4.6-2-4.6-4.4
							c0-1,0.3-1.9,1-2.7l0.2-0.2l-0.2-0.1c-2-0.5-3.4-2.3-3.4-4.2c0-2.4,2-4.4,4.6-4.4c0.6,0,1.1,0.1,1.6,0.3l0.2,0.1l0-0.3
							c0-0.1,0-0.2,0-0.3c0-2.4,2-4.4,4.6-4.4c2.5,0,4.6,2,4.6,4.4c0,0.1,0,0.2,0,0.3l0,0.3l0.2-0.1c0.5-0.2,1.1-0.3,1.6-0.3
							c2.5,0,4.6,2,4.6,4.4c0,2-1.4,3.7-3.3,4.2l-0.2,0.1L72,24c0.6,0.8,1,1.7,1,2.7C73,29.1,71,31.1,68.4,31.1"/>
					</g>
				</g>
			</g>
		</g>
		<g>
			<g>
				<g>
					<g>
						<path class="st0" d="M64.5,10.9c2.4,0,4.3,1.9,4.3,4.2c0,0.1,0,0.2,0,0.3l0,0.5l0.5-0.2c0.5-0.2,1-0.3,1.5-0.3
							c2.4,0,4.3,1.9,4.3,4.2c0,1.9-1.3,3.5-3.2,4l-0.5,0.1l0.3,0.4c0.6,0.7,0.9,1.6,0.9,2.6c0,2.3-1.9,4.2-4.3,4.2
							c-1.5,0-2.8-0.7-3.6-1.9l-0.3-0.4l-0.3,0.4c-0.8,1.2-2.2,1.9-3.6,1.9c-2.4,0-4.3-1.9-4.3-4.2c0-0.9,0.3-1.8,0.9-2.6l0.3-0.4
							l-0.5-0.1c-1.9-0.5-3.2-2.1-3.2-4c0-2.3,1.9-4.2,4.3-4.2c0.5,0,1,0.1,1.5,0.3l0.5,0.2l0-0.5c0-0.1,0-0.2,0-0.3
							C60.2,12.7,62.1,10.9,64.5,10.9 M64.5,10.5c-2.6,0-4.7,2-4.7,4.5c0,0.1,0,0.2,0,0.3c-0.5-0.2-1.1-0.3-1.6-0.3
							c-2.6,0-4.7,2-4.7,4.5c0,2.1,1.5,3.8,3.4,4.3c-0.6,0.8-1,1.7-1,2.8c0,2.5,2.1,4.5,4.7,4.5c1.6,0,3-0.8,3.9-2
							c0.8,1.2,2.3,2,3.9,2c2.6,0,4.7-2,4.7-4.5c0-1.1-0.4-2-1-2.8c2-0.5,3.4-2.3,3.4-4.3c0-2.5-2.1-4.5-4.7-4.5
							c-0.6,0-1.1,0.1-1.6,0.3c0-0.1,0-0.2,0-0.3C69.2,12.5,67.1,10.5,64.5,10.5"/>
					</g>
				</g>
			</g>
		</g>
		<g>
			<g>
				<defs>
					<path id="SVGID_1_" d="M60.9,16.5c0,0.1,0,0.2,0,0.3c-0.4-0.2-0.9-0.5-1.9-0.5c-2.1,0-3.7,1.6-3.7,3.6c0,1.6,1.2,3.2,3.3,3.6
						c-0.5,0.5-1.1,1.3-1.2,2.1c-0.2,2.3,1.5,4.1,3.9,4c1.6-0.1,2.7-1.2,3.2-2.1c0.6,1.1,1.8,2,3.1,2.1c2.7,0.1,4.2-2,3.9-4
						c-0.1-0.8-0.5-1.5-1.2-2.1c1.7-0.2,3.2-1.8,3.2-3.4c0-1.9-1.2-3.5-3.3-3.7c-1.1-0.1-1.8,0.3-2.2,0.5c0-0.3,0.1-0.7,0-1.3
						c-0.1-1-1.1-3.1-3.7-3.1C62,12.4,60.6,14.6,60.9,16.5"/>
				</defs>
				<clipPath id="SVGID_2_">
					<use xlink:href="#SVGID_1_"  style="overflow:visible;"/>
				</clipPath>
				<g class="st4">
					<g>
						<polygon class="st2" points="57.6,17.9 61,19.8 61.4,19.6 57.9,17.7 57.9,13.5 54.5,11.6 54.2,11.7 57.6,13.6 						"/>
					</g>
				</g>
				<g class="st4">
					<g>
						<polygon class="st2" points="62.8,7.6 62.5,7.4 62.5,11.2 58.7,13.4 58.7,17.2 58.9,17.3 58.9,13.5 62.8,11.4 						"/>
					</g>
				</g>
				<g class="st4">
					<g>
						<polygon class="st2" points="66.3,12.9 69.7,14.8 70.1,14.6 66.7,12.7 66.7,8.5 63.2,6.6 62.9,6.8 66.3,8.7 						"/>
					</g>
				</g>
				<g class="st4">
					<g>
						<polygon class="st2" points="64.2,21.3 63.8,21.1 63.8,24.9 60,27.1 60,30.9 60.3,31.1 60.3,27.3 64.2,25.1 						"/>
					</g>
				</g>
				<g class="st4">
					<g>
						<polygon class="st2" points="54.9,19.4 58.3,21.3 58.7,21.1 55.3,19.2 55.3,15 51.8,13.1 51.5,13.2 54.9,15.1 						"/>
					</g>
				</g>
				<g class="st4">
					<g>
						<polygon class="st2" points="73.2,17.2 73.2,16.8 69.7,18.7 65.9,16.6 62.5,18.5 62.5,18.8 65.9,16.9 69.7,19.1 						"/>
					</g>
				</g>
				<g class="st4">
					<g>
						<polygon class="st2" points="66.3,25.9 69.7,27.8 70.1,27.6 66.7,25.7 66.7,21.4 63.2,19.5 62.9,19.7 66.3,21.6 						"/>
					</g>
				</g>
				<g class="st4">
					<g>
						<polygon class="st2" points="69.7,30.6 73.2,28.7 73.2,28.3 69.7,30.2 65.9,28.1 62.5,30 62.5,30.3 65.9,28.4 						"/>
					</g>
				</g>
				<g class="st4">
					<g>
						<polygon class="st2" points="69.3,20 65.9,18.1 65.6,18.2 69,20.1 69,24.4 72.4,26.3 72.8,26.1 69.3,24.2 						"/>
					</g>
				</g>
				<g class="st4">
					<g>
						<polygon class="st2" points="71.1,27 71.4,26.9 68,25 68,20.7 64.6,18.8 64.2,19 67.7,20.9 67.7,25.1 						"/>
					</g>
				</g>
				<g class="st4">
					<g>
						<polygon class="st2" points="65.5,22.1 65.2,21.9 65.2,25.7 61.3,27.8 61.3,31.6 61.7,31.8 61.7,28 65.5,25.9 						"/>
					</g>
				</g>
				<g class="st4">
					<g>
						<polygon class="st2" points="63.8,12 60,14.1 60,17.9 60.3,18.1 60.3,14.3 64.2,12.2 64.2,8.4 63.8,8.1 						"/>
					</g>
				</g>
				<g class="st4">
					<g>
						<polygon class="st2" points="65.5,9.1 65.2,8.9 65.2,12.7 61.3,14.8 61.3,18.7 61.7,18.8 61.7,15 65.5,12.9 						"/>
					</g>
				</g>
				<g class="st4">
					<g>
						<polygon class="st2" points="65.9,13.6 62.5,15.5 62.5,15.9 65.9,14 69.7,16.1 73.2,14.2 73.2,13.8 69.7,15.7 						"/>
					</g>
				</g>
				<g class="st4">
					<g>
						<polygon class="st2" points="71.4,24.4 71.7,24.6 71.7,20.8 75.6,18.6 75.6,14.8 75.2,14.6 75.2,18.4 71.4,20.6 						"/>
					</g>
				</g>
				<g class="st4">
					<g>
						<polygon class="st2" points="65.9,26.6 62.5,28.5 62.5,28.8 65.9,26.9 69.7,29.1 73.2,27.2 73.2,26.8 69.7,28.7 						"/>
					</g>
				</g>
				<g class="st4">
					<g>
						<polygon class="st2" points="72.7,25.1 73.1,25.3 73.1,21.5 76.9,19.4 76.9,15.6 76.6,15.4 76.6,19.2 72.7,21.3 						"/>
					</g>
				</g>
				<g class="st4">
					<g>
						<polygon class="st2" points="56.3,18.6 59.7,20.6 60,20.4 56.6,18.5 56.6,14.2 53.2,12.3 52.8,12.5 56.3,14.4 						"/>
					</g>
				</g>
				<g class="st4">
					<g>
						<polygon class="st2" points="58.3,25.6 61.8,23.7 61.8,23.3 58.3,25.2 54.5,23.1 51.1,25 51.1,25.3 54.5,23.4 						"/>
					</g>
				</g>
				<g class="st4">
					<g>
						<polygon class="st2" points="73.2,30.1 73.2,29.8 69.7,31.7 65.9,29.5 62.5,31.5 62.5,31.8 65.9,29.9 69.7,32 						"/>
					</g>
				</g>
				<g class="st4">
					<g>
						<polygon class="st2" points="54.5,20.1 51.1,22 51.1,22.4 54.5,20.5 58.3,22.6 61.8,20.7 61.8,20.3 58.3,22.2 						"/>
					</g>
				</g>
				<g class="st4">
					<g>
						<polygon class="st2" points="70.4,20 74.2,17.9 74.2,14.1 73.9,13.9 73.9,17.7 70.1,19.8 70.1,23.4 70.4,23.5 						"/>
					</g>
				</g>
				<g class="st4">
					<g>
						<polygon class="st2" points="54.5,21.6 51.1,23.5 51.1,23.8 54.5,21.9 58.3,24.1 61.8,22.2 61.8,21.8 58.3,23.7 						"/>
					</g>
				</g>
				<g class="st4">
					<g>
						<polygon class="st2" points="57.9,26.4 54.5,24.5 54.2,24.7 57.6,26.6 57.6,30.9 61,32.8 61.4,32.6 57.9,30.7 						"/>
					</g>
				</g>
				<g class="st4">
					<g>
						<polygon class="st2" points="65.9,15.1 62.5,17 62.5,17.4 65.9,15.5 69.7,17.6 73.2,15.7 73.2,15.3 69.7,17.2 						"/>
					</g>
				</g>
				<g class="st4">
					<g>
						<polygon class="st2" points="56.6,27.2 53.2,25.3 52.8,25.5 56.3,27.4 56.3,31.6 59.7,33.5 60,33.3 56.6,31.4 						"/>
					</g>
				</g>
				<g class="st4">
					<g>
						<polygon class="st2" points="62.8,20.6 62.5,20.4 62.5,24.2 58.7,26.3 58.7,30.1 58.9,30.3 58.9,26.5 62.8,24.4 						"/>
					</g>
				</g>
				<g class="st4">
					<g>
						<polygon class="st2" points="61.8,22.2 58.1,24.2 54.5,21.9 51.1,23.8 51.1,23.5 54.5,21.6 58.3,23.7 61.8,21.8 						"/>
					</g>
				</g>
				<g class="st4">
					<g>
						<polygon class="st2" points="51.5,13.2 51.8,13.1 55.3,15 55.3,19.2 58.7,21.1 58.3,21.3 54.9,19.4 54.9,15.1 						"/>
					</g>
				</g>
				<g class="st4">
					<g>
						<polygon class="st2" points="61.7,18.8 61.3,18.7 61.3,14.8 65.2,12.7 65.2,8.9 65.5,9.1 65.5,12.9 61.7,15 						"/>
					</g>
				</g>
				<g class="st4">
					<g>
						<polygon class="st2" points="64.2,12.2 60.3,14.3 60.3,18.1 60,17.9 60,14.1 63.8,12 63.8,8.1 64.2,8.4 						"/>
					</g>
				</g>
				<g class="st4">
					<g>
						<polygon class="st2" points="58.9,17.3 58.7,17.2 58.7,13.4 62.5,11.2 62.5,7.4 62.8,7.6 62.8,11.4 58.9,13.5 						"/>
					</g>
				</g>
				<g class="st4">
					<g>
						<polygon class="st2" points="73.2,14.2 69.7,16.1 65.9,14 62.5,15.9 62.5,15.5 65.9,13.6 69.7,15.7 73.2,13.8 						"/>
					</g>
				</g>
				<g class="st4">
					<g>
						<polygon class="st2" points="73.2,15.7 69.7,17.6 65.9,15.5 62.5,17.4 62.5,17 65.9,15.1 69.7,17.2 73.2,15.3 						"/>
					</g>
				</g>
				<g class="st4">
					<g>
						<polygon class="st2" points="62.5,18.8 62.5,18.5 65.9,16.6 69.7,18.7 73.2,16.8 73.2,17.2 69.7,19.1 65.9,16.9 						"/>
					</g>
				</g>
				<g class="st4">
					<g>
						<polygon class="st2" points="62.9,6.8 63.2,6.6 66.7,8.5 66.7,12.7 70.1,14.6 69.7,14.8 66.3,12.9 66.3,8.7 						"/>
					</g>
				</g>
				<g class="st4">
					<g>
						<polygon class="st2" points="61.7,31.8 61.3,31.6 61.3,27.8 65.2,25.7 65.2,21.9 65.5,22.1 65.5,25.9 61.7,28 						"/>
					</g>
				</g>
				<g class="st4">
					<g>
						<polygon class="st2" points="60.3,31.1 60,30.9 60,27.1 63.8,24.9 63.8,21.1 64.2,21.3 64.2,25.1 60.3,27.3 						"/>
					</g>
				</g>
				<g class="st4">
					<g>
						<polygon class="st2" points="58.9,30.3 58.7,30.1 58.7,26.3 62.5,24.2 62.5,20.4 62.8,20.6 62.8,24.4 58.9,26.5 						"/>
					</g>
				</g>
				<g class="st4">
					<g>
						<polygon class="st2" points="73.2,27.2 69.7,29.1 65.9,26.9 62.5,28.8 62.5,28.5 65.9,26.6 69.7,28.7 73.2,26.8 						"/>
					</g>
				</g>
				<g class="st4">
					<g>
						<polygon class="st2" points="62.5,30 65.9,28.1 69.7,30.2 73.2,28.3 73.2,28.7 69.7,30.6 65.9,28.4 62.5,30.3 						"/>
					</g>
				</g>
				<g class="st4">
					<g>
						<polygon class="st2" points="62.5,31.8 62.5,31.5 65.9,29.5 69.7,31.7 73.2,29.8 73.2,30.1 69.7,32 65.9,29.9 						"/>
					</g>
				</g>
				<g class="st4">
					<g>
						<polygon class="st2" points="62.9,19.7 63.2,19.5 66.7,21.4 66.7,25.7 70.1,27.6 69.7,27.8 66.3,25.9 66.3,21.6 						"/>
					</g>
				</g>
				<g class="st4">
					<g>
						<polygon class="st2" points="64.2,19 64.6,18.8 68,20.7 68,25 71.4,26.9 71.3,27.2 67.7,25.1 67.7,20.9 						"/>
					</g>
				</g>
				<g class="st4">
					<g>
						<polygon class="st2" points="72.8,26.1 72.4,26.3 69,24.4 69,20.1 65.6,18.2 65.9,18.1 69.3,20 69.3,24.2 						"/>
					</g>
				</g>
				<g class="st4">
					<g>
						<polygon class="st2" points="61.8,20.7 58.3,22.6 54.5,20.5 51.1,22.4 51.1,22 54.5,20.1 58.3,22.2 61.8,20.3 						"/>
					</g>
				</g>
				<g class="st4">
					<g>
						<polygon class="st2" points="51.1,25 54.5,23.1 58.3,25.2 61.8,23.3 61.8,23.7 58.3,25.6 54.5,23.4 51.1,25.3 						"/>
					</g>
				</g>
				<g class="st4">
					<g>
						<polygon class="st2" points="52.8,12.5 53.2,12.3 56.6,14.2 56.6,18.5 60,20.4 59.7,20.6 56.3,18.6 56.3,14.4 						"/>
					</g>
				</g>
				<g class="st4">
					<g>
						<polygon class="st2" points="54.2,11.7 54.5,11.6 57.9,13.5 57.9,17.7 61.4,19.6 61,19.8 57.6,17.9 57.6,13.6 						"/>
					</g>
				</g>
				<g class="st4">
					<g>
						<polygon class="st2" points="61.4,32.6 61,32.8 57.6,30.9 57.6,26.6 54.2,24.7 54.5,24.5 57.9,26.4 57.9,30.7 						"/>
					</g>
				</g>
				<g class="st4">
					<g>
						<polygon class="st2" points="76.6,15.4 76.9,15.6 76.9,19.4 73.1,21.5 73.1,25.3 72.7,25.1 72.7,21.3 76.6,19.2 						"/>
					</g>
				</g>
				<g class="st4">
					<g>
						<polygon class="st2" points="75.2,14.6 75.6,14.8 75.6,18.6 71.7,20.8 71.7,24.6 71.4,24.4 71.4,20.6 75.2,18.4 						"/>
					</g>
				</g>
				<g class="st4">
					<g>
						<polygon class="st2" points="70.1,19.8 73.9,17.7 73.9,13.9 74.2,14.1 74.2,17.9 70.4,20 70.4,23.5 70.1,23.4 						"/>
					</g>
				</g>
				<g class="st4">
					<g>
						<polygon class="st2" points="60,33.3 59.7,33.5 56.3,31.6 56.3,27.4 52.8,25.5 53.2,25.3 56.6,27.2 56.6,31.4 						"/>
					</g>
				</g>
			</g>
			<g>
				<g>
					<g>
						<path class="st2" d="M61.2,29.7c-1.1,0-2.1-0.4-2.9-1.2c-0.7-0.8-1.1-1.8-1-3c0.1-0.8,0.6-1.6,1.1-2.1
							c-1.9-0.4-3.1-1.9-3.2-3.6c0-1,0.4-1.9,1.1-2.6c0.7-0.7,1.7-1.1,2.7-1.1c0.8,0,1.3,0.2,1.7,0.4c0,0,0,0,0.1,0c0,0,0,0,0,0
							c0,0,0-0.1,0-0.1l0,0c-0.2-1,0.2-2.1,0.9-2.9c0.7-0.8,1.7-1.3,2.9-1.3c2.6,0,3.6,2.1,3.8,3.2c0.1,0.4,0,0.8,0,1.1
							c0,0,0.1,0,0.1,0c0.4-0.2,1.1-0.5,2-0.4c2.1,0.2,3.4,1.7,3.4,3.8c0,1.6-1.5,3.2-3.1,3.5c0.6,0.6,0.9,1.3,1,2
							c0.1,1.1-0.2,2.1-0.9,2.9c-0.8,0.8-1.9,1.2-3.1,1.2c-1.2,0-2.4-0.8-3.1-1.9c-0.5,0.8-1.5,1.9-3.2,2
							C61.3,29.7,61.2,29.7,61.2,29.7z M59,16.3c-1,0-1.9,0.4-2.6,1.1c-0.7,0.7-1,1.5-1,2.5c0,1.4,1,3.1,3.2,3.5l0.3,0l-0.2,0.1
							c-0.5,0.5-1.1,1.3-1.1,2.1c-0.1,1.1,0.2,2.1,0.9,2.8c0.7,0.7,1.7,1.1,2.9,1.1c1.7-0.1,2.7-1.3,3.1-2l0.1,0l0.1,0
							c0.6,1.2,1.9,2,3,2c1.2,0,2.3-0.4,3-1.2c0.7-0.7,1-1.7,0.9-2.7c-0.1-0.8-0.5-1.5-1.1-2l-0.2-0.2l0.2,0
							c1.6-0.1,3.1-1.7,3.1-3.3c0-2-1.3-3.4-3.2-3.6c-0.9-0.1-1.5,0.2-1.9,0.4c-0.1,0,0,0-0.1,0.1l-0.3-0.1c0-0.3,0.1-0.7,0-1.1
							c-0.1-1-1.1-3-3.6-3c-1.1,0-2.1,0.4-2.7,1.2c-0.7,0.8-1,1.8-0.8,2.7l0,0c0,0,0,0.1,0,0.1c0,0.1,0,0.1,0,0.2l0,0.2l-0.2-0.1
							c-0.1,0-0.2-0.1-0.2-0.1C60.3,16.6,59.8,16.3,59,16.3z"/>
					</g>
				</g>
			</g>
		</g>
	</g>
</g>
</svg>
