<svg id="Layer_1" data-name="Layer 1" xmlns="http://www.w3.org/2000/svg" xmlns:xlink="http://www.w3.org/1999/xlink" viewBox="0 0 359 95"><defs><style>.cls-1{fill:none;}.cls-2,.cls-7{fill:#827754;}.cls-3{fill:#837855;}.cls-4{fill:#0e442c;}.cls-5{fill:#817653;}.cls-6{fill:#fff;}.cls-7{stroke:#827754;stroke-miterlimit:10;stroke-width:0.25px;}.cls-8{clip-path:url(#clip-path);}</style><clipPath id="clip-path"><path class="cls-1" d="M177,21.66c0,.06,0,.19,0,.26a3.22,3.22,0,0,0-1.59-.46,3.14,3.14,0,0,0-3.17,3.17A3.25,3.25,0,0,0,175,27.74a3.31,3.31,0,0,0-1,1.87,3.14,3.14,0,0,0,3.35,3.52,3.28,3.28,0,0,0,2.73-1.84,3.31,3.31,0,0,0,2.67,1.79,3.12,3.12,0,0,0,3.38-3.5,3,3,0,0,0-1-1.84,3.21,3.21,0,0,0,2.77-3,3.09,3.09,0,0,0-2.84-3.23,3.29,3.29,0,0,0-1.87.41,4.37,4.37,0,0,0,0-1.1,3.17,3.17,0,0,0-6.28.85"/></clipPath></defs><title>logo-header-02</title><path class="cls-2" d="M37.71,52a2.75,2.75,0,0,1-1-2.14v0a2.74,2.74,0,0,1,1-2.14,3.76,3.76,0,0,1,2.58-.9,3.7,3.7,0,0,1,2.56.89,2.73,2.73,0,0,1,1,2.14h0a2.73,2.73,0,0,1-1,2.15,3.75,3.75,0,0,1-2.57.9A3.71,3.71,0,0,1,37.71,52ZM42,51.28a1.94,1.94,0,0,0,.65-1.47v0a2,2,0,0,0-.66-1.48,2.56,2.56,0,0,0-3.32,0A1.92,1.92,0,0,0,38,49.78h0a1.92,1.92,0,0,0,.66,1.48,2.58,2.58,0,0,0,3.32,0Z"/><path class="cls-3" d="M40.28,53.08a4,4,0,0,1-2.73-.95,3,3,0,0,1,0-4.66,4.39,4.39,0,0,1,5.47,0,3,3,0,0,1,1.07,2.32A3,3,0,0,1,43,52.12,4,4,0,0,1,40.28,53.08Zm0-6.09a3.55,3.55,0,0,0-2.42.84,2.48,2.48,0,0,0-.92,2,2.54,2.54,0,0,0,.91,2h0a3.9,3.9,0,0,0,4.82,0,2.58,2.58,0,0,0,0-3.94A3.5,3.5,0,0,0,40.3,47Zm0,5.13a2.6,2.6,0,0,1-1.84-.68,2.25,2.25,0,0,1,0-3.31,2.63,2.63,0,0,1,1.83-.67,2.57,2.57,0,0,1,1.83.68,2.25,2.25,0,0,1,0,3.31h0A2.62,2.62,0,0,1,40.3,52.12Zm0-4.18a2.14,2.14,0,0,0-1.5.54,1.72,1.72,0,0,0-.56,1.3,1.68,1.68,0,0,0,.57,1.31,2.11,2.11,0,0,0,1.51.55,2.09,2.09,0,0,0,1.49-.54,1.66,1.66,0,0,0,.56-1.29,1.69,1.69,0,0,0-.57-1.32A2.1,2.1,0,0,0,40.28,47.94Z"/><path class="cls-2" d="M47.16,52.18a2.44,2.44,0,0,1-.79-1.94V46.85h1.2V50.2A1.64,1.64,0,0,0,48,51.44a1.75,1.75,0,0,0,1.27.43,1.79,1.79,0,0,0,1.26-.41A1.6,1.6,0,0,0,51,50.24V46.85h1.2v3.34a2.5,2.5,0,0,1-.8,2,3.79,3.79,0,0,1-4.26,0Z"/><path class="cls-3" d="M49.28,53.07A3.42,3.42,0,0,1,47,52.36a2.65,2.65,0,0,1-.87-2.12V46.61h1.69V50.2a1.4,1.4,0,0,0,.38,1.07,1.51,1.51,0,0,0,1.1.36,1.55,1.55,0,0,0,1.09-.34,1.39,1.39,0,0,0,.38-1V46.61h1.69v3.58a2.73,2.73,0,0,1-.88,2.16A3.39,3.39,0,0,1,49.28,53.07Zm-2.66-6v3.15a2.15,2.15,0,0,0,.7,1.75h0a3.54,3.54,0,0,0,3.93,0,2.22,2.22,0,0,0,.72-1.8v-3.1h-.71v3.15a1.81,1.81,0,0,1-.54,1.4,2.37,2.37,0,0,1-2.86,0,1.93,1.93,0,0,1-.53-1.42V47.09Z"/><path class="cls-2" d="M55,46.85h3a2.93,2.93,0,0,1,2,.59,1.62,1.62,0,0,1,.56,1.27v0c0,.91-.53,1.51-1.62,1.78l1.85,2.23H59.41l-1.67-2.05H56.23v2.05H55Zm3,2.92a1.71,1.71,0,0,0,1-.27.82.82,0,0,0,.38-.71v0c0-.65-.46-1-1.41-1H56.23v2Z"/><path class="cls-3" d="M61.35,53H59.3l-1.68-2H56.48v2H54.79V46.61h3.29a3.15,3.15,0,0,1,2.13.65,1.86,1.86,0,0,1,.65,1.45,1.92,1.92,0,0,1-1.45,1.92Zm-1.82-.48h.8l-1.77-2.13.37-.09c1-.24,1.44-.75,1.44-1.55a1.38,1.38,0,0,0-.49-1.11,2.65,2.65,0,0,0-1.8-.53h-2.8V52.5H56v-2h1.86ZM58,50H56V47.55h2c1.37,0,1.66.66,1.66,1.22a1.06,1.06,0,0,1-.49.92A2,2,0,0,1,58,50Zm-1.51-.48H58a1.51,1.51,0,0,0,.88-.23.58.58,0,0,0,.28-.51c0-.37-.13-.76-1.17-.76h-1.5Z"/><path class="cls-2" d="M73.08,52.92l-.82-.64a3.89,3.89,0,0,1-2.08.56A3.7,3.7,0,0,1,67.62,52a2.73,2.73,0,0,1-1-2.14v0a2.72,2.72,0,0,1,1-2.14,4.14,4.14,0,0,1,5.14,0,2.75,2.75,0,0,1,1,2.14h0a2.7,2.7,0,0,1-.69,1.81l.78.58Zm-1.7-1.31-1.18-.87L71,50l1.2.94a1.91,1.91,0,0,0,.33-1.12v0a1.94,1.94,0,0,0-.65-1.48,2.36,2.36,0,0,0-1.67-.61,2.33,2.33,0,0,0-1.66.61,1.91,1.91,0,0,0-.64,1.47h0a1.91,1.91,0,0,0,.65,1.48,2.36,2.36,0,0,0,1.67.61A2.53,2.53,0,0,0,71.38,51.61Z"/><path class="cls-3" d="M73.1,53.23l-.86-.66a4.22,4.22,0,0,1-2.06.51,4,4,0,0,1-2.73-.95,3.06,3.06,0,0,1,0-4.66,4.39,4.39,0,0,1,5.47,0A3,3,0,0,1,74,49.78a2.92,2.92,0,0,1-.6,1.78l.81.59ZM70.2,47a3.52,3.52,0,0,0-2.41.84,2.49,2.49,0,0,0-.93,2,2.52,2.52,0,0,0,.92,2,3.5,3.5,0,0,0,2.4.83,3.67,3.67,0,0,0,1.95-.52l.15-.09.78.61.42-.4-.76-.56.16-.19a2.53,2.53,0,0,0-.28-3.63A3.5,3.5,0,0,0,70.2,47Zm0,5.13a2.6,2.6,0,0,1-1.84-.68,2.13,2.13,0,0,1-.72-1.65,2.17,2.17,0,0,1,.72-1.66,2.82,2.82,0,0,1,3.66,0,2.26,2.26,0,0,1,.35,2.92l-.14.22-1.24-1-.42.41,1.27.93-.35.17A2.79,2.79,0,0,1,70.2,52.12Zm0-4.18a2.12,2.12,0,0,0-1.49.54,1.77,1.77,0,0,0,0,2.61,2.07,2.07,0,0,0,1.5.55,2.56,2.56,0,0,0,.69-.09l-1.06-.78L71,49.67l1.15.9a1.73,1.73,0,0,0,.16-.76,1.69,1.69,0,0,0-.58-1.32A2.07,2.07,0,0,0,70.18,47.94Z"/><path class="cls-2" d="M77.07,52.18a2.41,2.41,0,0,1-.79-1.94V46.85h1.2V50.2a1.61,1.61,0,0,0,.46,1.24,1.74,1.74,0,0,0,1.26.43,1.77,1.77,0,0,0,1.26-.41,1.6,1.6,0,0,0,.46-1.22V46.85h1.2v3.34a2.46,2.46,0,0,1-.8,2,3.77,3.77,0,0,1-4.25,0Z"/><path class="cls-3" d="M79.18,53.07a3.39,3.39,0,0,1-2.27-.71A2.66,2.66,0,0,1,76,50.24V46.61h1.69V50.2a1.41,1.41,0,0,0,.39,1.07,1.47,1.47,0,0,0,1.09.36,1.59,1.59,0,0,0,1.1-.34,1.39,1.39,0,0,0,.38-1V46.61h1.68v3.58a2.7,2.7,0,0,1-.88,2.16A3.37,3.37,0,0,1,79.18,53.07Zm-2.66-6v3.15A2.15,2.15,0,0,0,77.23,52h0a2.86,2.86,0,0,0,2,.59,2.93,2.93,0,0,0,2-.6,2.25,2.25,0,0,0,.72-1.8v-3.1h-.71v3.15a1.84,1.84,0,0,1-.54,1.4,2.09,2.09,0,0,1-1.43.47,2,2,0,0,1-1.43-.49,1.9,1.9,0,0,1-.54-1.42V47.09Z"/><path class="cls-2" d="M87.11,46.81h1.12l3,5.93H90l-.69-1.42H86l-.7,1.42H84.11Zm1.72,3.59L87.65,48,86.48,50.4Z"/><path class="cls-3" d="M91.62,53H89.81l-.69-1.42H86.19L85.49,53H83.72L87,46.57h1.42Zm-1.5-.48h.72l-2.76-5.45h-.81L84.5,52.5h.69l.7-1.42h3.53Zm-.9-1.86H86.09l1.56-3.14Zm-2.35-.48h1.57l-.79-1.57Z"/><path class="cls-2" d="M93.57,46.85h1.2V51.8h3.59v.94H93.57Z"/><path class="cls-3" d="M98.6,53H93.33V46.61H95v5H98.6Zm-4.79-.48h4.31V52H94.53V47.09h-.72Z"/><path class="cls-2" d="M100.85,46.85h1.2v5.89h-1.2Z"/><path class="cls-3" d="M102.29,53H100.6V46.61h1.69Zm-1.2-.48h.71V47.09h-.71Z"/><path class="cls-2" d="M105.84,47.81h-2.16v-1h5.54v1h-2.17v4.93h-1.21Z"/><path class="cls-3" d="M107.29,53H105.6V48.05h-2.17V46.61h6v1.44h-2.17Zm-1.21-.48h.73V47.57H109v-.48h-5v.48h2.16Z"/><path class="cls-2" d="M113.66,50.42,111,46.85h1.43l1.9,2.6,1.93-2.6h1.38l-2.72,3.54v2.35h-1.21Z"/><path class="cls-3" d="M115.12,53h-1.7V50.5l-3-3.89h2L114.28,49l1.81-2.43h2l-2.95,3.86Zm-1.21-.48h.72V50.31l2.47-3.22h-.77l-2,2.77-2-2.77h-.81l2.47,3.25Z"/><path class="cls-2" d="M247.14,52a2.75,2.75,0,0,1-1-2.14v0a2.74,2.74,0,0,1,1-2.14,3.76,3.76,0,0,1,2.58-.9,3.7,3.7,0,0,1,2.56.89,2.73,2.73,0,0,1,1,2.14h0a2.73,2.73,0,0,1-1,2.15,3.75,3.75,0,0,1-2.57.9A3.71,3.71,0,0,1,247.14,52Zm4.24-.67a1.94,1.94,0,0,0,.65-1.47v0a2,2,0,0,0-.66-1.48,2.56,2.56,0,0,0-3.32,0,1.92,1.92,0,0,0-.65,1.47h0a1.92,1.92,0,0,0,.66,1.48,2.58,2.58,0,0,0,3.32,0Z"/><path class="cls-3" d="M249.71,53.08a4,4,0,0,1-2.73-.95,3,3,0,0,1,0-4.66,4.39,4.39,0,0,1,5.47,0,3,3,0,0,1,1.07,2.32,3,3,0,0,1-1.09,2.34A4,4,0,0,1,249.71,53.08Zm0-6.09a3.55,3.55,0,0,0-2.42.84,2.48,2.48,0,0,0-.92,2,2.54,2.54,0,0,0,.91,2h0a3.9,3.9,0,0,0,4.82,0,2.58,2.58,0,0,0,0-3.94A3.5,3.5,0,0,0,249.73,47Zm0,5.13a2.6,2.6,0,0,1-1.84-.68,2.14,2.14,0,0,1-.73-1.65,2.17,2.17,0,0,1,.72-1.66,2.63,2.63,0,0,1,1.83-.67,2.57,2.57,0,0,1,1.83.68,2.25,2.25,0,0,1,0,3.31A2.62,2.62,0,0,1,249.73,52.12Zm0-4.18a2.14,2.14,0,0,0-1.5.54,1.72,1.72,0,0,0-.56,1.3,1.68,1.68,0,0,0,.57,1.31,2.11,2.11,0,0,0,1.51.55,2.09,2.09,0,0,0,1.49-.54h0a1.66,1.66,0,0,0,.56-1.29,1.69,1.69,0,0,0-.57-1.32A2.1,2.1,0,0,0,249.71,47.94Z"/><path class="cls-2" d="M256.59,52.18a2.44,2.44,0,0,1-.79-1.94V46.85H257V50.2a1.64,1.64,0,0,0,.46,1.24,1.75,1.75,0,0,0,1.27.43,1.79,1.79,0,0,0,1.26-.41,1.6,1.6,0,0,0,.46-1.22V46.85h1.2v3.34a2.5,2.5,0,0,1-.8,2,3.79,3.79,0,0,1-4.26,0Z"/><path class="cls-3" d="M258.71,53.07a3.42,3.42,0,0,1-2.28-.71,2.65,2.65,0,0,1-.87-2.12V46.61h1.69V50.2a1.4,1.4,0,0,0,.38,1.07,1.51,1.51,0,0,0,1.1.36,1.55,1.55,0,0,0,1.09-.34,1.39,1.39,0,0,0,.38-1V46.61h1.69v3.58a2.73,2.73,0,0,1-.88,2.16A3.39,3.39,0,0,1,258.71,53.07Zm-2.66-6v3.15a2.15,2.15,0,0,0,.7,1.75h0a3.54,3.54,0,0,0,3.93,0,2.22,2.22,0,0,0,.72-1.8v-3.1h-.71v3.15a1.81,1.81,0,0,1-.54,1.4,2.37,2.37,0,0,1-2.86,0,1.93,1.93,0,0,1-.53-1.42V47.09Z"/><path class="cls-2" d="M264.46,46.85h3.05a2.93,2.93,0,0,1,2,.59,1.62,1.62,0,0,1,.56,1.27v0c0,.91-.53,1.51-1.62,1.78l1.85,2.23h-1.43l-1.67-2.05h-1.51v2.05h-1.2Zm3,2.92a1.71,1.71,0,0,0,1-.27.82.82,0,0,0,.38-.71v0c0-.65-.46-1-1.41-1h-1.75v2Z"/><path class="cls-3" d="M270.78,53h-2l-1.68-2h-1.14v2h-1.69V46.61h3.29a3.17,3.17,0,0,1,2.13.65,1.86,1.86,0,0,1,.65,1.45,1.92,1.92,0,0,1-1.45,1.92ZM269,52.5h.8L268,50.37l.37-.09c1-.24,1.44-.75,1.44-1.55a1.38,1.38,0,0,0-.49-1.11,2.65,2.65,0,0,0-1.8-.53h-2.8V52.5h.71v-2h1.86ZM267.42,50h-2V47.55h2c1.37,0,1.66.66,1.66,1.22a1.06,1.06,0,0,1-.49.92A2,2,0,0,1,267.42,50Zm-1.51-.48h1.51a1.51,1.51,0,0,0,.88-.23.58.58,0,0,0,.28-.51c0-.37-.13-.76-1.17-.76h-1.5Z"/><path class="cls-2" d="M276.78,46.85h5.09v.94H278V49.4h3.45v.94H278v2.4h-1.2Z"/><path class="cls-3" d="M278.23,53h-1.69V46.61h5.57V48h-3.88v1.13h3.44v1.42h-3.44ZM277,52.5h.71V50.1h3.44v-.46h-3.44V47.55h3.88v-.46H277Z"/><path class="cls-2" d="M285,52.18a2.44,2.44,0,0,1-.79-1.94V46.85h1.2V50.2a1.64,1.64,0,0,0,.46,1.24,1.75,1.75,0,0,0,1.27.43,1.77,1.77,0,0,0,1.26-.41,1.6,1.6,0,0,0,.46-1.22V46.85h1.2v3.34a2.5,2.5,0,0,1-.8,2,3.79,3.79,0,0,1-4.26,0Z"/><path class="cls-3" d="M287.15,53.07a3.42,3.42,0,0,1-2.28-.71,2.65,2.65,0,0,1-.87-2.12V46.61h1.69V50.2a1.4,1.4,0,0,0,.38,1.07,1.51,1.51,0,0,0,1.1.36,1.55,1.55,0,0,0,1.09-.34,1.35,1.35,0,0,0,.38-1V46.61h1.69v3.58a2.73,2.73,0,0,1-.88,2.16A3.39,3.39,0,0,1,287.15,53.07Zm-2.66-6v3.15a2.15,2.15,0,0,0,.7,1.75h0a2.91,2.91,0,0,0,2,.59,3,3,0,0,0,2-.6,2.24,2.24,0,0,0,.71-1.8v-3.1h-.71v3.15a1.84,1.84,0,0,1-.53,1.4,2.09,2.09,0,0,1-1.43.47,2.06,2.06,0,0,1-1.44-.49,1.93,1.93,0,0,1-.53-1.42V47.09Z"/><path class="cls-2" d="M294.58,47.81h-2.16v-1H298v1h-2.17v4.93h-1.21Z"/><path class="cls-3" d="M296,53h-1.7V48.05h-2.17V46.61h6v1.44H296Zm-1.21-.48h.72V47.57h2.16v-.48h-5v.48h2.17Z"/><path class="cls-2" d="M301.08,52.18a2.41,2.41,0,0,1-.79-1.94V46.85h1.2V50.2a1.61,1.61,0,0,0,.46,1.24,2.1,2.1,0,0,0,2.52,0,1.56,1.56,0,0,0,.46-1.22V46.85h1.2v3.34a2.46,2.46,0,0,1-.8,2,3.14,3.14,0,0,1-2.13.66A3.18,3.18,0,0,1,301.08,52.18Z"/><path class="cls-3" d="M303.2,53.07a3.42,3.42,0,0,1-2.28-.71,2.66,2.66,0,0,1-.88-2.12V46.61h1.69V50.2a1.41,1.41,0,0,0,.39,1.07,1.48,1.48,0,0,0,1.1.36,1.58,1.58,0,0,0,1.09-.34,1.39,1.39,0,0,0,.38-1V46.61h1.69v3.58a2.7,2.7,0,0,1-.89,2.16A3.36,3.36,0,0,1,303.2,53.07Zm-2.67-6v3.15a2.15,2.15,0,0,0,.71,1.75h0a3.54,3.54,0,0,0,3.93,0,2.25,2.25,0,0,0,.72-1.8v-3.1h-.71v3.15a1.81,1.81,0,0,1-.54,1.4,2.37,2.37,0,0,1-2.86,0,1.9,1.9,0,0,1-.54-1.42V47.09Z"/><path class="cls-2" d="M309,46.85h3a2.92,2.92,0,0,1,2,.59,1.6,1.6,0,0,1,.57,1.27v0c0,.91-.54,1.51-1.62,1.78l1.85,2.23h-1.43l-1.68-2.05h-1.5v2.05H309Zm3,2.92a1.71,1.71,0,0,0,1-.27.84.84,0,0,0,.38-.71v0c0-.65-.47-1-1.41-1h-1.75v2Z"/><path class="cls-3" d="M315.27,53h-2.06l-1.67-2h-1.15v2h-1.68V46.61H312a3.14,3.14,0,0,1,2.13.65,1.83,1.83,0,0,1,.65,1.45,1.93,1.93,0,0,1-1.44,1.92Zm-1.82-.48h.79l-1.76-2.13.37-.09c1-.24,1.44-.75,1.44-1.55a1.38,1.38,0,0,0-.49-1.11,2.68,2.68,0,0,0-1.81-.53h-2.8V52.5h.72v-2h1.86ZM311.91,50h-2V47.55h2c1.37,0,1.66.66,1.66,1.22a1.06,1.06,0,0,1-.49.92A2,2,0,0,1,311.91,50Zm-1.52-.48h1.52a1.51,1.51,0,0,0,.88-.23.58.58,0,0,0,.28-.51c0-.37-.14-.76-1.17-.76h-1.51Z"/><path class="cls-2" d="M317.17,46.85h5.07v.93h-3.87v1.53h3.43v.92h-3.43v1.58h3.91v.93h-5.11Z"/><path class="cls-3" d="M322.53,53h-5.6V46.61h5.55V48h-3.86v1.06H322v1.4h-3.42v1.1h3.91Zm-5.11-.48H322v-.45h-3.91V50h3.42v-.44h-3.42v-2H322v-.45h-4.57Z"/><path class="cls-4" d="M138.84,28a45.5,45.5,0,1,1,22,60.46,45.5,45.5,0,0,1-22-60.46"/><path class="cls-5" d="M180.16,1.39A45.8,45.8,0,0,1,221.6,66.55,45.81,45.81,0,1,1,180.16,1.39Zm-.14,91a45.18,45.18,0,1,0-19-4.23A45.25,45.25,0,0,0,180,92.38Z"/><path class="cls-5" d="M180.12,1.05a46.16,46.16,0,0,1-.06,92.31,46.16,46.16,0,0,1-41.8-65.66A46.17,46.17,0,0,1,180.12,1.05m-.06,91A44.86,44.86,0,0,0,199,6.56a44.52,44.52,0,0,0-18.92-4.21,44.86,44.86,0,0,0-42.18,60.2,44.92,44.92,0,0,0,42.12,29.52"/><path class="cls-6" d="M180.1,5.14A42.07,42.07,0,0,1,218.19,65a42.23,42.23,0,0,1-38.14,24.3A42.08,42.08,0,0,1,142,29.43,42.24,42.24,0,0,1,180.1,5.14m0,83.49A41.42,41.42,0,0,0,197.57,9.68,41,41,0,0,0,180.1,5.79a41.42,41.42,0,0,0-17.53,78.95,41.12,41.12,0,0,0,17.48,3.89"/><path class="cls-7" d="M219,47.21c0-.33,0-.65,0-1a40.19,40.19,0,0,0-2.3-12.52s0,0,0,0h0c-.23-.64-.48-1.28-.74-1.92a39.75,39.75,0,0,0-8.33-12.61,39.2,39.2,0,0,0-7.06-5.7h0a38.38,38.38,0,0,0-5.31-2.8A37.8,37.8,0,0,0,182,7.58h-.17l-1.1,0h-1.25l-1.1,0h-.17a37.91,37.91,0,0,0-13.25,3.07,38.79,38.79,0,0,0-12.36,8.5,39.58,39.58,0,0,0-8.33,12.61c-.27.63-.51,1.27-.74,1.91h0a40.67,40.67,0,0,0,0,27.08h0c.23.64.47,1.27.73,1.9a39.66,39.66,0,0,0,8.34,12.61,38.63,38.63,0,0,0,12.36,8.5,38.14,38.14,0,0,0,13.26,3.08h.06c.61,0,1.21,0,1.82,0s1.22,0,1.82,0H182a38.14,38.14,0,0,0,13.25-3.08,37.33,37.33,0,0,0,5.31-2.8h0a38.77,38.77,0,0,0,7.06-5.7,39.64,39.64,0,0,0,8.33-12.61c.26-.62.5-1.25.73-1.89h0A40,40,0,0,0,219,47.21Zm-1.3,2.09a38.25,38.25,0,0,1-2.07,12.53A15.62,15.62,0,0,1,210.47,64a43.54,43.54,0,0,0,1.62-12c0-.21,0-.42,0-.63a18.71,18.71,0,0,0,5.59-2.31ZM191.53,85l-.35.11h0a19.38,19.38,0,0,1-2.4.54,14.74,14.74,0,0,0,4.13-2.6,39.27,39.27,0,0,0,4.76-.94A25,25,0,0,1,191.53,85Zm-3.15.85-.32.07.12,0Zm-19.31-.71h0l-.46-.14h0a24.82,24.82,0,0,1-6.14-2.9,37.65,37.65,0,0,0,4.76,1,14.88,14.88,0,0,0,4.13,2.6A21,21,0,0,1,169.07,85.13Zm2.89.74.12,0-.33-.07ZM141.31,47.21h0a38.51,38.51,0,0,1,2.14-12.72A2.71,2.71,0,0,0,144.59,36a41,41,0,0,0-2.24,12.94,2.25,2.25,0,0,1-1-1.68Zm17.52-32.54a1,1,0,0,1,.39-.74l.57-.36a35.17,35.17,0,0,1,7.2-3.29.68.68,0,0,0-.07.28.55.55,0,0,0,0,.17,38.37,38.37,0,0,0-8.12,4Zm21.24-7h.64l.48,0a3.18,3.18,0,0,0-1.12.76A3,3,0,0,0,179,7.69l.48,0Zm20.86,6.27a1,1,0,0,1,.39.74.25.25,0,0,1,0,.08,38.06,38.06,0,0,0-8.11-4,.55.55,0,0,0,0-.17.68.68,0,0,0-.07-.28,35.17,35.17,0,0,1,7.2,3.29Zm11,38.14a43.4,43.4,0,0,1-1.64,12,69.12,69.12,0,0,1-8.75,1.7,60,60,0,0,0,1.09-12.53c1.72-.23,3.35-.49,4.88-.78s3.11-.65,4.41-1C212,51.67,212,51.87,212,52.07Zm-63.77-.6c1.31.35,2.78.69,4.41,1s3.16.55,4.88.78a60,60,0,0,0,1.1,12.53,69,69,0,0,1-8.76-1.7,43.4,43.4,0,0,1-1.63-12ZM175.37,8.3a29.79,29.79,0,0,1,3.26.12c-1.16,0-2.31,0-3.46.11C175.18,8.45,175.25,8.38,175.37,8.3Zm1-.32a14.44,14.44,0,0,1,2.58.32l.15,0a25.83,25.83,0,0,0-3.39-.17A4.93,4.93,0,0,1,176.35,8Zm8.11.19a26,26,0,0,0-3.4.17l.16,0A14.22,14.22,0,0,1,183.8,8,4.93,4.93,0,0,1,184.46,8.17Zm.51.36c-1.14-.09-2.29-.13-3.45-.11a29.6,29.6,0,0,1,3.25-.12C184.9,8.38,185,8.45,185,8.53ZM201.43,65.8c-4,.54-8.51.93-13.42,1.14.28-3.87.41-8.1.38-12.49,5.09-.21,9.89-.61,14.14-1.18A60,60,0,0,1,201.43,65.8ZM157.61,53.27c4.26.57,9,1,14.14,1.18,0,4.39.1,8.62.38,12.49-4.9-.21-9.45-.6-13.42-1.14A60,60,0,0,1,157.61,53.27ZM180.07,41c-2.61,0-5.16-.05-7.62-.15.35-4.53.85-8.81,1.45-12.69q3,.12,6.17.12c2.1,0,4.17,0,6.17-.12.61,3.88,1.11,8.16,1.46,12.69C185.24,41,182.69,41,180.07,41Zm7.64,0c.15,2,.28,4.08.37,6.18.11,2.42.17,4.81.18,7.13-2.64.11-5.38.17-8.19.17s-5.55-.06-8.19-.17c0-2.32.08-4.71.19-7.13.09-2.1.22-4.17.37-6.18,2.48.1,5,.15,7.63.15S185.22,41.11,187.71,41Zm-7.64-12.83c-2.1,0-4.16,0-6.15-.12.55-3.48,1.19-6.64,1.89-9.37,1.37,0,2.8.08,4.26.08s2.89,0,4.27-.08c.7,2.73,1.34,5.89,1.88,9.37C184.24,28.14,182.18,28.18,180.07,28.18Zm0-19.56a6.71,6.71,0,0,1,.65.78h-1.29A6.68,6.68,0,0,1,180.07,8.62Zm-.78.78c-.4,0-.77,0-1.12-.06a17.21,17.21,0,0,1,1.68-.66A6.2,6.2,0,0,0,179.29,9.4Zm1-.72q.84.29,1.68.66c-.35,0-.72.05-1.12.06A7.52,7.52,0,0,0,180.3,8.68Zm.54.05c.74.14,1.47.3,2.2.5l-.8.09C181.78,9.1,181.31,8.91,180.84,8.73Zm-2.93.59-.8-.09c.72-.2,1.45-.36,2.19-.5C178.83,8.91,178.37,9.1,177.91,9.32Zm-.23.11A21.33,21.33,0,0,0,173,12.57a29.18,29.18,0,0,1-3-.49,30.83,30.83,0,0,1,6.72-2.77C177.06,9.36,177.36,9.4,177.68,9.43Zm.25,0c.41,0,.83.06,1.27.08a17.73,17.73,0,0,0-1.7,3.39c-1.54-.06-3-.18-4.29-.33A20.84,20.84,0,0,1,177.93,9.45Zm1.41.08h1.47a18,18,0,0,1,1.71,3.39c-.79,0-1.61.05-2.45.05s-1.65,0-2.45-.05A18,18,0,0,1,179.34,9.53Zm1.61,0c.43,0,.86,0,1.27-.08a21.29,21.29,0,0,1,4.72,3.14c-1.3.15-2.75.27-4.29.33A17.73,17.73,0,0,0,181,9.53Zm1.52-.1c.31,0,.61-.07.89-.12a30.83,30.83,0,0,1,6.72,2.77,29.66,29.66,0,0,1-3,.49A21.33,21.33,0,0,0,182.47,9.43Zm1.19-.17c.25,0,.48-.11.68-.17a37.93,37.93,0,0,1,8,2.28,9.61,9.61,0,0,1-2,.66A31.48,31.48,0,0,0,183.66,9.26Zm-.3-.09c-.65-.18-1.32-.33-2-.47.89.09,1.77.2,2.65.34C183.83,9.09,183.61,9.13,183.36,9.17Zm-1-.49c.74,0,1.47.1,2.2.19l-.25.09C183.68,8.85,183,8.75,182.38,8.68Zm-3.61,0c-.67.14-1.33.29-2,.47-.25,0-.47-.08-.66-.13C177,8.9,177.88,8.79,178.77,8.7Zm-3,.26-.25-.09c.73-.09,1.46-.15,2.2-.19C177.11,8.75,176.47,8.85,175.82,9Zm.67.3A31.48,31.48,0,0,0,169.86,12a9.73,9.73,0,0,1-2-.66,38.19,38.19,0,0,1,8-2.28C176,9.15,176.24,9.21,176.49,9.26Zm-6.81,2.87A36.14,36.14,0,0,0,163,17a12.36,12.36,0,0,1-3.23-1.19,39.85,39.85,0,0,1,7.91-4.39A8.64,8.64,0,0,0,169.68,12.13Zm.2,0a29,29,0,0,0,3,.52,32.62,32.62,0,0,0-4.7,5.25c-1.13-.14-2.19-.31-3.17-.5-.66-.12-1.27-.25-1.84-.39A36.72,36.72,0,0,1,169.88,12.18Zm3.18.54c1.32.16,2.79.27,4.38.33a48.45,48.45,0,0,0-1.73,5.5c-2.63-.1-5.13-.3-7.38-.58A32.32,32.32,0,0,1,173.06,12.72Zm2.62,6c0,.17-.09.34-.13.51-.66,2.67-1.25,5.65-1.76,8.86-3.89-.15-7.5-.45-10.68-.86a48.72,48.72,0,0,1,5.13-9.09C170.45,18.38,173,18.58,175.68,18.68Zm4.39-.05c-1.43,0-2.85,0-4.23-.08a47.64,47.64,0,0,1,1.73-5.5c.81,0,1.65,0,2.5,0s1.7,0,2.5,0a49.55,49.55,0,0,1,1.74,5.5C182.93,18.61,181.51,18.63,180.07,18.63Zm2.63-5.58c1.59-.06,3.07-.17,4.38-.33A31.87,31.87,0,0,1,191.81,18c-2.24.28-4.74.48-7.38.58A48.45,48.45,0,0,0,182.7,13.05Zm4.55-.35a28.56,28.56,0,0,0,3-.52,36.38,36.38,0,0,1,6.7,4.88q-.84.21-1.83.39c-1,.19-2,.36-3.17.5A32.66,32.66,0,0,0,187.25,12.7Zm3.22-.57a8.54,8.54,0,0,0,2-.7,39.3,39.3,0,0,1,7.91,4.39A12.41,12.41,0,0,1,197.14,17,36.83,36.83,0,0,0,190.47,12.13Zm2.13-.78a1.47,1.47,0,0,0,.54-.5,37.9,37.9,0,0,1,8.14,4,1.76,1.76,0,0,1-.8.86A39.4,39.4,0,0,0,192.6,11.35Zm-.15-.06A38.29,38.29,0,0,0,184.59,9a1.23,1.23,0,0,0,.23-.11A39.27,39.27,0,0,1,193,10.8,1.43,1.43,0,0,1,192.45,11.29Zm-17.12-2.4a1,1,0,0,0,.23.11,38.38,38.38,0,0,0-7.87,2.29,1.51,1.51,0,0,1-.57-.49A39.21,39.21,0,0,1,175.33,8.89Zm-7.78,2.46a39.47,39.47,0,0,0-7.89,4.4,1.81,1.81,0,0,1-.8-.86,38.13,38.13,0,0,1,8.14-4A1.6,1.6,0,0,0,167.55,11.35Zm-8,4.49a40.56,40.56,0,0,0-6.15,5.46c-.81.87-1.58,1.78-2.3,2.7a2,2,0,0,1-1-1.28c.8-1,1.65-1.91,2.55-2.81A39.25,39.25,0,0,1,158.75,15,2,2,0,0,0,159.55,15.84Zm-6.06,5.55a40.91,40.91,0,0,1,6.18-5.48,11.79,11.79,0,0,0,3.21,1.22,42.11,42.11,0,0,0-5.45,6.14c-.61.83-1.19,1.68-1.75,2.55a15.74,15.74,0,0,1-4.47-1.74C151.93,23.16,152.69,22.26,153.49,21.39Zm9.56-4.22a43.39,43.39,0,0,0,5,.91A49.9,49.9,0,0,0,163,27.17a61.22,61.22,0,0,1-7.15-1.31A44,44,0,0,1,163.05,17.17Zm-4.23,9.47c1.28.25,2.65.46,4.11.65A65.74,65.74,0,0,0,159,39.77a71.39,71.39,0,0,1-8.75-1.65A48.73,48.73,0,0,1,155.76,26C156.68,26.21,157.7,26.43,158.82,26.64Zm4.24.67c3.24.42,6.87.72,10.71.87-.62,3.94-1.11,8.22-1.45,12.69-4.82-.19-9.29-.57-13.2-1.09A65.41,65.41,0,0,1,163.06,27.31ZM172.31,41c-.15,2-.28,4.09-.37,6.18q-.16,3.62-.19,7.14c-5.17-.21-10-.62-14.14-1.18,0-.3,0-.6,0-.9a71.17,71.17,0,0,1,1.46-12.33C163.08,40.44,167.56,40.81,172.31,41Zm-.17,26.07c.14,1.81.3,3.53.5,5.16.23,1.85.5,3.56.8,5.1-4.06-.18-7.84-.51-11.13-1-.12-.23-.24-.46-.35-.69a40.72,40.72,0,0,1-3.22-9.73C162.77,66.49,167.33,66.87,172.14,67.07Zm.14,0c2.54.1,5.15.16,7.79.16s5.26-.06,7.79-.16a89.33,89.33,0,0,1-1.29,10.26c-2.1.09-4.28.13-6.5.13s-4.39,0-6.5-.13A91.61,91.61,0,0,1,172.28,67.08Zm7.79,0c-2.67,0-5.28,0-7.8-.16-.28-3.83-.42-8-.39-12.48,2.66.1,5.41.16,8.19.16s5.53-.06,8.19-.16c0,4.44-.11,8.65-.39,12.48C185.35,67.05,182.74,67.1,180.07,67.1Zm8.32-12.78q0-3.52-.18-7.14c-.09-2.09-.22-4.15-.37-6.18,4.74-.19,9.22-.56,13.21-1.09a70.21,70.21,0,0,1,1.46,12.33c0,.3,0,.6,0,.9C198.36,53.7,193.57,54.11,188.39,54.32Zm-.56-13.45c-.35-4.47-.84-8.75-1.46-12.69,3.85-.15,7.48-.45,10.72-.87A65.41,65.41,0,0,1,201,39.78C197.12,40.3,192.65,40.68,187.83,40.87Zm-1.48-12.82c-.5-3.21-1.09-6.19-1.75-8.86,0-.17-.09-.34-.13-.51,2.71-.1,5.22-.3,7.44-.58A48.14,48.14,0,0,1,197,27.19C193.86,27.6,190.25,27.9,186.35,28.05Zm5.7-10a42.62,42.62,0,0,0,5-.91,44.07,44.07,0,0,1,7.23,8.69,61,61,0,0,1-7.16,1.31A49.32,49.32,0,0,0,192.05,18.08Zm10.67,5.19a43.31,43.31,0,0,0-5.45-6.14,11.92,11.92,0,0,0,3.21-1.22,41.9,41.9,0,0,1,6.18,5.48c.8.87,1.56,1.77,2.28,2.69a15.7,15.7,0,0,1-4.48,1.74Q203.64,24.52,202.72,23.27Zm4-2a41,41,0,0,0-6.15-5.46,2,2,0,0,0,.8-.88,39.65,39.65,0,0,1,6.08,4.95A37.52,37.52,0,0,1,210,22.72,2.1,2.1,0,0,1,209,24C208.32,23.08,207.56,22.17,206.75,21.3ZM182.51,8.55c.81,0,1.61,0,2.41.11l-.13.1C184,8.67,183.27,8.6,182.51,8.55Zm-1.32-.37c-.3.06-.6.14-.9.23a2.48,2.48,0,0,1,1.36-.7c.59,0,1.12.1,1.57.17A13.09,13.09,0,0,0,181.19,8.18Zm-4.26-.3c.45-.07,1-.13,1.56-.17a2.47,2.47,0,0,1,1.37.7c-.3-.09-.6-.17-.9-.23A13.09,13.09,0,0,0,176.93,7.88Zm.71.67c-.77,0-1.53.12-2.29.21l-.13-.1C176,8.6,176.83,8.56,177.64,8.55ZM150,22.85a2.45,2.45,0,0,0,1,1.25,41.18,41.18,0,0,0-6.39,11.74,2.29,2.29,0,0,1-1.1-1.61A38.31,38.31,0,0,1,150,22.85Zm1.14,1.32a15.86,15.86,0,0,0,4.48,1.76,48.57,48.57,0,0,0-5.52,12.16,17.91,17.91,0,0,1-5.36-2.17A41.51,41.51,0,0,1,151.14,24.17Zm-1.07,14a49.15,49.15,0,0,0-2,13.11A17.82,17.82,0,0,1,142.48,49a40.51,40.51,0,0,1,2.22-13A17.91,17.91,0,0,0,150.07,38.2Zm.14,0c1.18.31,2.51.61,4,.89s3.1.54,4.79.76a70.44,70.44,0,0,0-1.46,12.35c0,.29,0,.59,0,.88a76.83,76.83,0,0,1-9.3-1.77A48.89,48.89,0,0,1,150.21,38.24ZM155,65.36c1.13.2,2.32.39,3.57.56a40.7,40.7,0,0,0,3.23,9.8c.11.21.21.42.32.62A54.09,54.09,0,0,1,155,74.92c-.38-.53-.74-1.07-1.1-1.63a35.6,35.6,0,0,1-4-9.07C151.36,64.63,153.08,65,155,65.36Zm7.2,11.15a22.84,22.84,0,0,0,4.8,6.35,36.66,36.66,0,0,1-4.95-1,28.27,28.27,0,0,1-6.92-6.73A56.2,56.2,0,0,0,162.24,76.51Zm.16,0c3.26.44,7,.77,11.06.94a31,31,0,0,0,1.76,6.13c-2.9-.13-5.6-.37-7.95-.7A22.67,22.67,0,0,1,162.4,76.53Zm11.2.94q3.14.14,6.47.14c2.22,0,4.39,0,6.47-.13a31,31,0,0,1-1.75,6.13c-1.53.07-3.11.1-4.72.1s-3.18,0-4.71-.1A31.52,31.52,0,0,1,173.6,77.47Zm13.08,0c4-.17,7.8-.49,11.06-.94a22.48,22.48,0,0,1-4.87,6.37c-2.34.33-5,.57-7.94.71A32.1,32.1,0,0,0,186.68,77.47Zm0-.14c.3-1.54.57-3.25.79-5.1.2-1.63.37-3.35.5-5.16,4.82-.2,9.37-.58,13.4-1.13a40.27,40.27,0,0,1-3.21,9.73l-.36.69C194.54,76.82,190.77,77.15,186.71,77.33Zm11.59-1.61a40.71,40.71,0,0,0,3.24-9.8c1.24-.17,2.43-.36,3.57-.56,1.95-.34,3.68-.73,5.17-1.14a35.62,35.62,0,0,1-4.06,9.07c-.35.56-.72,1.1-1.1,1.63A54.24,54.24,0,0,1,198,76.34C198.1,76.14,198.2,75.93,198.3,75.72Zm4.36-22.6c0-.29,0-.59,0-.88a70.44,70.44,0,0,0-1.46-12.35c1.69-.22,3.29-.48,4.78-.76s2.8-.57,4-.89a48.89,48.89,0,0,1,2,13.11A76.25,76.25,0,0,1,202.66,53.12Zm-1.51-13.35a65.4,65.4,0,0,0-3.93-12.47c1.45-.2,2.83-.41,4.11-.66,1.12-.21,2.14-.43,3-.67a48.89,48.89,0,0,1,5.52,12.15A71,71,0,0,1,201.15,39.77Zm3.38-13.84A15.68,15.68,0,0,0,209,24.17a41.23,41.23,0,0,1,6.39,11.75A17.8,17.8,0,0,1,210,38.09,48.54,48.54,0,0,0,204.53,25.93Zm4.59-1.83a2.45,2.45,0,0,0,1-1.25,38.28,38.28,0,0,1,6.45,11.38,2.27,2.27,0,0,1-1.09,1.61A41.68,41.68,0,0,0,209.12,24.1Zm-16-13.54a.5.5,0,0,1,0,.12,39.62,39.62,0,0,0-8.1-1.9.44.44,0,0,0,.09-.11A35.57,35.57,0,0,1,193,10.22.53.53,0,0,1,193.1,10.56Zm-8-2h0a.33.33,0,0,0-.11-.23,25,25,0,0,1,6.44,1.08,5.19,5.19,0,0,1,1.31.62A35.72,35.72,0,0,0,185.1,8.54Zm-.3-.37a2.82,2.82,0,0,0-.48-.19,11.66,11.66,0,0,1,1.78.16h0c.48.08,1,.16,1.44.26A25.28,25.28,0,0,0,184.8,8.17Zm-1-.32h0Zm-7.49,0h0ZM174,8.14A11.79,11.79,0,0,1,175.83,8a2.28,2.28,0,0,0-.48.19,25.07,25.07,0,0,0-2.75.23c.48-.1,1-.18,1.44-.26Zm-5.3,1.25a24.8,24.8,0,0,1,6.41-1.08.33.33,0,0,0-.11.23h0A35.63,35.63,0,0,0,167.41,10,4.48,4.48,0,0,1,168.74,9.39Zm6.34-.72a.44.44,0,0,0,.09.11,39.62,39.62,0,0,0-8.1,1.9.5.5,0,0,1,0-.12.53.53,0,0,1,.14-.34A35.57,35.57,0,0,1,175.08,8.67ZM142.35,49v.26a38.46,38.46,0,0,0,2,12.38,2.53,2.53,0,0,1-.73-1,40.32,40.32,0,0,1-2.31-12.87A3.32,3.32,0,0,0,142.35,49Zm.13.26v-.17a18.51,18.51,0,0,0,5.58,2.31v.63a43.54,43.54,0,0,0,1.62,12,15.6,15.6,0,0,1-5.14-2.21A38.24,38.24,0,0,1,142.48,49.3Zm7.24,14.88a35.59,35.59,0,0,0,4.09,9.18c.33.51.67,1,1,1.5a11.54,11.54,0,0,1-4-1.83,35.74,35.74,0,0,1-5-8.15C145.33,64,145,63,144.61,62A16.63,16.63,0,0,0,149.72,64.18Zm1.43,9.3A14.25,14.25,0,0,0,155,75.06a28.4,28.4,0,0,0,6.71,6.65,8.78,8.78,0,0,1-2-.85h0a37.81,37.81,0,0,1-5.1-3.84h0A35,35,0,0,1,151.15,73.48ZM162.05,82a25.26,25.26,0,0,0,2.44,1.45,38.37,38.37,0,0,1-3.61-1.85C161.24,81.71,161.63,81.85,162.05,82Zm5.42,1.1c2.31.32,5,.55,7.81.67a8.44,8.44,0,0,0,1.32,2.2l.26.25c-1.78-.08-3.43-.24-4.87-.45A14.22,14.22,0,0,1,167.47,83.07Zm9.22,2.78a8.18,8.18,0,0,1-1.27-2.1c1.5.06,3.06.09,4.65.09s3.15,0,4.66-.09a8.18,8.18,0,0,1-1.28,2.1,3,3,0,0,1-.37.35c-1,0-2,.07-3,.07s-2,0-3-.07C176.94,86.1,176.82,86,176.69,85.85Zm6.86.09a8.72,8.72,0,0,0,1.32-2.2c2.85-.12,5.5-.35,7.8-.67a14.16,14.16,0,0,1-4.53,2.67,46.21,46.21,0,0,1-4.85.45Zm9.56-3.08a23,23,0,0,0,4.79-6.35,56.39,56.39,0,0,0,7.08-1.4,28.27,28.27,0,0,1-6.92,6.73A37,37,0,0,1,193.11,82.86Zm12.07-7.8A14.48,14.48,0,0,0,209,73.48,37.26,37.26,0,0,1,205.54,77h0a39.16,39.16,0,0,1-5.09,3.83,8.86,8.86,0,0,1-2,.86A28.36,28.36,0,0,0,205.18,75.06Zm4.19-2a11.54,11.54,0,0,1-4.05,1.82c.35-.49.69-1,1-1.5a36,36,0,0,0,4.1-9.18,16.66,16.66,0,0,0,5.1-2.14c-.34,1-.71,1.91-1.13,2.84A36,36,0,0,1,209.37,73Zm2.71-21.73a49.15,49.15,0,0,0-2-13.11A18,18,0,0,0,215.44,36a40.79,40.79,0,0,1,2.23,13A17.93,17.93,0,0,1,212.08,51.31ZM215.55,36a2.68,2.68,0,0,0,1.14-1.45,38.42,38.42,0,0,1,2.15,12.71h0a2.24,2.24,0,0,1-1.05,1.68A40.73,40.73,0,0,0,215.55,36Zm.34-3.88a38.63,38.63,0,0,0-5.71-9.4v-.11a1.17,1.17,0,0,0,0-.32,39.56,39.56,0,0,1,5.65,9.58A1.86,1.86,0,0,1,215.89,32.07ZM209.7,21.7h0a1.37,1.37,0,0,1,.35.83c-.78-.94-1.6-1.84-2.48-2.71a38.31,38.31,0,0,0-6.14-5,1,1,0,0,0,0-.16,1,1,0,0,0-.16-.51,35,35,0,0,1,4.19,3.18h0c.69.61,1.36,1.24,2,1.91S209,20.86,209.7,21.7Zm-12-9.71A34,34,0,0,0,193,10.11a1.48,1.48,0,0,0-.37-.31c.84.29,1.68.61,2.5,1S196.89,11.55,197.72,12ZM165,10.77c.83-.36,1.66-.68,2.51-1a2.1,2.1,0,0,0-.38.3A36.47,36.47,0,0,0,162.42,12C163.26,11.55,164.11,11.15,165,10.77Zm-12.32,8.48c.65-.67,1.32-1.3,2-1.91h0a35.09,35.09,0,0,1,4.2-3.18.93.93,0,0,0-.16.51,1,1,0,0,0,0,.16,38.82,38.82,0,0,0-6.15,5c-.87.87-1.7,1.77-2.48,2.71a1.32,1.32,0,0,1,.37-.83h0C151.15,20.85,151.89,20,152.66,19.25Zm-2.65,3a1.19,1.19,0,0,0,0,.32s0,.08,0,.11a38.41,38.41,0,0,0-5.72,9.41l.1-.27A39.72,39.72,0,0,1,150,22.24Zm-6.14,39.12a3.63,3.63,0,0,0,.56.54c.35,1,.75,2,1.2,3a35.1,35.1,0,0,0,2.73,5,39.31,39.31,0,0,1-4-7.35C144.18,62.19,144,61.77,143.87,61.36Zm30.27,24.93h0a11.08,11.08,0,0,1-1.41-.32c1.3.17,2.75.29,4.29.36a2.32,2.32,0,0,0,.53.33C176.4,86.59,175.26,86.47,174.14,86.29Zm4.06.41a1.81,1.81,0,0,1-.95-.36c.91,0,1.86.06,2.82.06s1.91,0,2.83-.06a1.84,1.84,0,0,1-1,.36c-.62,0-1.25,0-1.88,0S178.82,86.73,178.2,86.7Zm4.93-.37c1.54-.07,3-.19,4.28-.35a13.45,13.45,0,0,1-1.4.31h0c-1.13.18-2.26.3-3.41.37A2.32,2.32,0,0,0,183.13,86.33Zm12.52-2.91A24.1,24.1,0,0,0,198.09,82c.42-.12.82-.26,1.17-.39A39.48,39.48,0,0,1,195.65,83.42ZM215.79,62.6a39.4,39.4,0,0,1-4,7.34,38.18,38.18,0,0,0,2.72-5c.44-1,.84-2,1.2-3a4.15,4.15,0,0,0,.56-.54C216.12,61.77,216,62.19,215.79,62.6Zm.73-1.88a2.66,2.66,0,0,1-.73,1,38.47,38.47,0,0,0,2-12.38V49a3.28,3.28,0,0,0,1-1.21A40.17,40.17,0,0,1,216.52,60.72Z"/><polygon class="cls-6" points="125.5 36.15 133.11 61.56 227.14 61.62 234.65 36.15 125.5 36.15"/><polygon class="cls-5" points="234.65 36.15 125.5 36.15 124.69 34.98 235.46 34.98 234.65 36.15"/><polygon class="cls-5" points="133.11 61.56 227.14 61.62 227.96 62.79 132.19 62.79 133.11 61.56"/><path class="cls-6" d="M180.07,36.63A10.62,10.62,0,1,1,190.91,26a10.74,10.74,0,0,1-10.84,10.62"/><path class="cls-2" d="M180.07,14.34A11.8,11.8,0,0,0,168.18,26,11.9,11.9,0,0,0,192,26,11.8,11.8,0,0,0,180.07,14.34Zm0,1.09A10.58,10.58,0,1,1,169.27,26,10.71,10.71,0,0,1,180.07,15.43Z"/><path class="cls-4" d="M183.46,34.43a4,4,0,0,1-3.26-1.72l-.12-.18-.12.18a4,4,0,0,1-3.26,1.72,3.88,3.88,0,0,1-3.92-3.84,3.77,3.77,0,0,1,.85-2.38l.14-.17-.22-.06A3.84,3.84,0,1,1,176,20.7l.21.07v-.22a2.09,2.09,0,0,1,0-.24,3.92,3.92,0,0,1,7.83,0c0,.07,0,.15,0,.24l0,.22.21-.07A3.85,3.85,0,1,1,186.6,28l-.21.06.14.17a3.77,3.77,0,0,1,.85,2.38,3.88,3.88,0,0,1-3.92,3.84"/><path class="cls-5" d="M180.07,16.75a3.67,3.67,0,0,1,3.71,3.63v.24l0,.43.41-.15a3.65,3.65,0,1,1,2.3,6.91l-.41.11.27.33a3.58,3.58,0,0,1,.8,2.26,3.68,3.68,0,0,1-3.71,3.64,3.71,3.71,0,0,1-3.09-1.63l-.24-.35-.24.35a3.73,3.73,0,0,1-3.09,1.63A3.68,3.68,0,0,1,173,30.51a3.53,3.53,0,0,1,.8-2.26l.27-.33-.42-.11A3.65,3.65,0,0,1,171,24.3a3.71,3.71,0,0,1,5-3.4l.42.15,0-.43a2.09,2.09,0,0,1,0-.24,3.68,3.68,0,0,1,3.71-3.63m0-.28a4,4,0,0,0-4,3.91,2.26,2.26,0,0,0,0,.26,3.93,3.93,0,1,0-2.47,7.44,3.86,3.86,0,0,0-.87,2.43,4,4,0,0,0,4,3.92,4,4,0,0,0,3.33-1.75,4,4,0,0,0,3.33,1.75,4,4,0,0,0,4-3.92,3.86,3.86,0,0,0-.87-2.43,3.93,3.93,0,1,0-2.48-7.44,2.26,2.26,0,0,0,0-.26,4,4,0,0,0-4-3.91"/><g class="cls-8"><polygon class="cls-6" points="174.15 22.91 177.09 24.58 177.37 24.42 174.43 22.75 174.43 19.03 171.49 17.36 171.21 17.53 174.15 19.19 174.15 22.91"/><polygon class="cls-6" points="178.6 13.89 178.35 13.75 178.35 17.08 175.06 18.94 175.06 22.27 175.31 22.41 175.31 19.08 178.6 17.21 178.6 13.89"/><polygon class="cls-6" points="181.64 18.54 184.58 20.21 184.87 20.04 181.93 18.38 181.93 14.65 178.99 12.99 178.7 13.15 181.64 14.82 181.64 18.54"/><polygon class="cls-6" points="179.79 25.92 179.46 25.73 179.46 29.06 176.17 30.92 176.17 34.25 176.5 34.44 176.5 31.11 179.79 29.24 179.79 25.92"/><polygon class="cls-6" points="171.84 24.22 174.78 25.89 175.07 25.72 172.13 24.06 172.13 20.33 169.19 18.67 168.9 18.83 171.84 20.5 171.84 24.22"/><polygon class="cls-6" points="187.52 22.27 187.52 21.94 184.58 23.61 181.29 21.75 178.35 23.41 178.35 23.73 181.29 22.07 184.58 23.93 187.52 22.27"/><polygon class="cls-6" points="181.64 29.9 184.58 31.56 184.87 31.4 181.93 29.73 181.93 26.01 178.99 24.34 178.7 24.51 181.64 26.17 181.64 29.9"/><polygon class="cls-6" points="184.58 33.99 187.52 32.32 187.52 31.99 184.58 33.66 181.29 31.8 178.35 33.46 178.35 33.79 181.29 32.13 184.58 33.99"/><polygon class="cls-6" points="184.23 24.71 181.29 23.04 181 23.2 183.94 24.87 183.94 28.59 186.89 30.26 187.17 30.1 184.23 28.43 184.23 24.71"/><polygon class="cls-6" points="185.73 30.91 186.02 30.75 183.08 29.08 183.08 25.36 180.14 23.69 179.85 23.86 182.79 25.52 182.79 29.25 185.73 30.91"/><polygon class="cls-6" points="180.94 26.57 180.65 26.4 180.65 29.73 177.36 31.6 177.36 34.92 177.65 35.09 177.65 31.76 180.94 29.9 180.94 26.57"/><polygon class="cls-6" points="179.46 17.7 176.17 19.57 176.17 22.89 176.5 23.08 176.5 19.75 179.79 17.89 179.79 14.56 179.46 14.38 179.46 17.7"/><polygon class="cls-6" points="180.94 15.21 180.65 15.05 180.65 18.38 177.36 20.24 177.36 23.57 177.65 23.73 177.65 20.4 180.94 18.54 180.94 15.21"/><polygon class="cls-6" points="181.29 19.13 178.35 20.8 178.35 21.13 181.29 19.46 184.58 21.33 187.52 19.66 187.52 19.33 184.58 21 181.29 19.13"/><polygon class="cls-6" points="185.97 28.57 186.29 28.76 186.29 25.43 189.58 23.57 189.58 20.24 189.25 20.05 189.25 23.38 185.97 25.25 185.97 28.57"/><polygon class="cls-6" points="181.29 30.49 178.35 32.16 178.35 32.49 181.29 30.82 184.58 32.68 187.52 31.02 187.52 30.69 184.58 32.35 181.29 30.49"/><polygon class="cls-6" points="187.15 29.25 187.45 29.41 187.45 26.08 190.74 24.22 190.74 20.89 190.44 20.73 190.44 24.06 187.15 25.92 187.15 29.25"/><polygon class="cls-6" points="172.99 23.57 175.94 25.23 176.22 25.07 173.29 23.4 173.28 19.68 170.34 18.01 170.05 18.18 172.99 19.84 172.99 23.57"/><polygon class="cls-6" points="174.78 29.61 177.72 27.94 177.72 27.62 174.78 29.29 171.49 27.43 168.55 29.09 168.55 29.41 171.49 27.75 174.78 29.61"/><polygon class="cls-6" points="187.52 33.62 187.52 33.3 184.58 34.97 181.29 33.1 178.35 34.77 178.35 35.09 181.29 33.42 184.58 35.29 187.52 33.62"/><polygon class="cls-6" points="171.49 24.81 168.55 26.48 168.55 26.81 171.49 25.14 174.78 27 177.72 25.34 177.72 25.01 174.78 26.68 171.49 24.81"/><polygon class="cls-6" points="185.1 24.75 188.4 22.89 188.4 19.57 188.14 19.42 188.14 22.75 184.85 24.62 184.85 27.74 185.1 27.8 185.1 24.75"/><polygon class="cls-6" points="171.49 26.12 168.55 27.78 168.55 28.11 171.49 26.45 174.78 28.31 177.72 26.65 177.72 26.32 174.78 27.98 171.49 26.12"/><polygon class="cls-6" points="174.43 30.39 171.49 28.72 171.21 28.88 174.15 30.55 174.15 34.27 177.09 35.94 177.37 35.77 174.43 34.11 174.43 30.39"/><polygon class="cls-6" points="181.29 20.44 178.35 22.11 178.35 22.44 181.29 20.77 184.58 22.63 187.52 20.97 187.52 20.64 184.58 22.3 181.29 20.44"/><polygon class="cls-6" points="173.28 31.04 170.34 29.37 170.05 29.54 172.99 31.2 172.99 34.92 175.94 36.59 176.22 36.42 173.29 34.76 173.28 31.04"/><polygon class="cls-6" points="178.6 25.24 178.35 25.1 178.35 28.43 175.06 30.29 175.06 33.62 175.31 33.76 175.31 30.43 178.6 28.57 178.6 25.24"/><polygon class="cls-6" points="177.72 26.65 174.58 28.43 171.49 26.45 168.55 28.11 168.55 27.78 171.49 26.12 174.78 27.98 177.72 26.32 177.72 26.65"/><polygon class="cls-6" points="168.9 18.83 169.19 18.67 172.13 20.33 172.13 24.06 175.07 25.72 174.78 25.89 171.84 24.22 171.84 20.5 168.9 18.83"/><polygon class="cls-6" points="177.65 23.73 177.36 23.57 177.36 20.24 180.65 18.38 180.65 15.05 180.94 15.21 180.94 18.54 177.65 20.4 177.65 23.73"/><polygon class="cls-6" points="179.79 17.89 176.5 19.75 176.5 23.08 176.17 22.89 176.17 19.57 179.46 17.7 179.46 14.38 179.79 14.56 179.79 17.89"/><polygon class="cls-6" points="175.31 22.41 175.06 22.27 175.06 18.94 178.35 17.08 178.35 13.75 178.6 13.89 178.6 17.21 175.31 19.08 175.31 22.41"/><polygon class="cls-6" points="187.52 19.66 184.58 21.33 181.29 19.46 178.35 21.13 178.35 20.8 181.29 19.13 184.58 21 187.52 19.33 187.52 19.66"/><polygon class="cls-6" points="187.52 20.97 184.58 22.63 181.29 20.77 178.35 22.44 178.35 22.11 181.29 20.44 184.58 22.3 187.52 20.64 187.52 20.97"/><polygon class="cls-6" points="178.35 23.73 178.35 23.41 181.29 21.75 184.58 23.61 187.52 21.94 187.52 22.27 184.58 23.93 181.29 22.07 178.35 23.73"/><polygon class="cls-6" points="178.7 13.15 178.99 12.99 181.93 14.65 181.93 18.38 184.87 20.04 184.58 20.21 181.64 18.54 181.64 14.82 178.7 13.15"/><polygon class="cls-6" points="177.65 35.09 177.36 34.92 177.36 31.6 180.65 29.73 180.65 26.4 180.94 26.57 180.94 29.9 177.65 31.76 177.65 35.09"/><polygon class="cls-6" points="176.5 34.44 176.17 34.25 176.17 30.92 179.46 29.06 179.46 25.73 179.79 25.92 179.79 29.24 176.5 31.11 176.5 34.44"/><polygon class="cls-6" points="175.31 33.76 175.06 33.62 175.06 30.29 178.35 28.43 178.35 25.1 178.6 25.24 178.6 28.57 175.31 30.43 175.31 33.76"/><polygon class="cls-6" points="187.52 31.02 184.58 32.68 181.29 30.82 178.35 32.49 178.35 32.16 181.29 30.49 184.58 32.35 187.52 30.69 187.52 31.02"/><polygon class="cls-6" points="178.35 33.46 181.29 31.8 184.58 33.66 187.52 31.99 187.52 32.32 184.58 33.99 181.29 32.13 178.35 33.79 178.35 33.46"/><polygon class="cls-6" points="178.35 35.09 178.35 34.77 181.29 33.1 184.58 34.97 187.52 33.3 187.52 33.62 184.58 35.29 181.29 33.42 178.35 35.09"/><polygon class="cls-6" points="178.7 24.51 178.99 24.34 181.93 26.01 181.93 29.73 184.87 31.4 184.58 31.56 181.64 29.9 181.64 26.17 178.7 24.51"/><polygon class="cls-6" points="179.85 23.86 180.14 23.69 183.08 25.36 183.08 29.08 186.02 30.75 185.91 31.01 182.79 29.25 182.79 25.52 179.85 23.86"/><polygon class="cls-6" points="187.17 30.1 186.89 30.26 183.94 28.59 183.94 24.87 181 23.2 181.29 23.04 184.23 24.71 184.23 28.43 187.17 30.1"/><polygon class="cls-6" points="177.72 25.34 174.78 27 171.49 25.14 168.55 26.81 168.55 26.48 171.49 24.81 174.78 26.68 177.72 25.01 177.72 25.34"/><polygon class="cls-6" points="168.55 29.09 171.49 27.43 174.78 29.29 177.72 27.62 177.72 27.94 174.78 29.61 171.49 27.75 168.55 29.41 168.55 29.09"/><polygon class="cls-6" points="170.05 18.18 170.34 18.01 173.28 19.68 173.29 23.4 176.22 25.07 175.94 25.23 172.99 23.57 172.99 19.84 170.05 18.18"/><polygon class="cls-6" points="171.21 17.53 171.49 17.36 174.43 19.03 174.43 22.75 177.37 24.42 177.09 24.58 174.15 22.91 174.15 19.19 171.21 17.53"/><polygon class="cls-6" points="177.37 35.77 177.09 35.94 174.15 34.27 174.15 30.55 171.21 28.88 171.49 28.72 174.43 30.39 174.43 34.11 177.37 35.77"/><polygon class="cls-6" points="190.44 20.73 190.74 20.89 190.74 24.22 187.45 26.08 187.45 29.41 187.15 29.25 187.15 25.92 190.44 24.06 190.44 20.73"/><polygon class="cls-6" points="189.25 20.05 189.58 20.24 189.58 23.57 186.29 25.43 186.29 28.76 185.97 28.57 185.97 25.25 189.25 23.38 189.25 20.05"/><polygon class="cls-6" points="184.85 24.62 188.14 22.75 188.14 19.42 188.4 19.57 188.4 22.89 185.1 24.75 185.1 27.8 184.85 27.74 184.85 24.62"/><polygon class="cls-6" points="176.22 36.42 175.94 36.59 172.99 34.92 172.99 31.2 170.05 29.54 170.34 29.37 173.28 31.04 173.29 34.76 176.22 36.42"/></g><path class="cls-6" d="M177.22,33.22a3.31,3.31,0,0,1-2.45-1,3.11,3.11,0,0,1,.08-4.4,3.33,3.33,0,0,1-2.72-3.17,3.13,3.13,0,0,1,.91-2.28,3.28,3.28,0,0,1,2.35-1,2.84,2.84,0,0,1,1.43.37l.05,0h0a.28.28,0,0,0,0-.09h0a3.26,3.26,0,0,1,6.46-.87,3.9,3.9,0,0,1,0,1l.08,0a3,3,0,0,1,1.7-.33A3.18,3.18,0,0,1,188,24.73a3.34,3.34,0,0,1-2.67,3.08,3,3,0,0,1,.89,1.76,3.21,3.21,0,0,1-.78,2.53,3.44,3.44,0,0,1-2.69,1.07,3.38,3.38,0,0,1-2.67-1.7,3.34,3.34,0,0,1-2.73,1.75Zm-1.83-11.67a3.11,3.11,0,0,0-2.22.92,3,3,0,0,0-.87,2.16,3.18,3.18,0,0,0,2.75,3l.23,0-.19.11a3.16,3.16,0,0,0-1,1.81,3.08,3.08,0,0,0,.79,2.46,3.16,3.16,0,0,0,2.46,1A3.22,3.22,0,0,0,180,31.25h.16A3.21,3.21,0,0,0,182.77,33a3.27,3.27,0,0,0,2.56-1,3,3,0,0,0,.73-2.39,2.87,2.87,0,0,0-1-1.78l-.15-.14.2,0a3.12,3.12,0,0,0,2.69-2.92,3,3,0,0,0-2.76-3.14,2.8,2.8,0,0,0-1.61.31l-.11.05-.22-.13a4,4,0,0,0,0-1,3.08,3.08,0,0,0-6.11.82h0a.31.31,0,0,0,0,.09.7.7,0,0,0,0,.16l0,.17L177,22l-.21-.1A2.65,2.65,0,0,0,175.39,21.55Z"/><polygon class="cls-5" points="190.14 58.38 188.72 58.38 134.38 58.38 134.38 58.92 188.72 58.92 190.14 58.92 225.56 58.92 225.56 58.38 190.14 58.38"/><polygon class="cls-5" points="188.72 59.26 134.38 59.26 134.38 59.4 188.72 59.4 190.09 59.4 225.53 59.4 225.53 59.26 190.09 59.26 188.72 59.26"/><polygon class="cls-5" points="168.6 39.34 170.19 39.34 230.97 39.34 230.97 38.8 170.19 38.8 168.6 38.8 128.98 38.8 128.98 39.34 168.6 39.34"/><polygon class="cls-5" points="170.19 38.46 230.97 38.46 230.97 38.32 170.19 38.32 168.66 38.32 129.01 38.32 129.01 38.46 168.66 38.46 170.19 38.46"/><path class="cls-4" d="M138.61,55.43V44h5c2.37,0,3.72,1.05,3.72,2.86a2.29,2.29,0,0,1-1.53,2.35l-.54.2.56.15a2.55,2.55,0,0,1,2,2.61c0,2.07-1.56,3.22-4.4,3.22Zm2.72-2.1h2.11c1.07,0,1.59-.47,1.59-1.42s-.53-1.39-1.59-1.39h-2.11Zm0-4.69h1.85c1.16,0,1.41-.67,1.41-1.24,0-.83-.46-1.26-1.37-1.26h-1.89Z"/><path class="cls-5" d="M143.62,44.23c2.25,0,3.53,1,3.53,2.67a2.08,2.08,0,0,1-1.4,2.17l-1.09.4,1.11.31a2.37,2.37,0,0,1,1.9,2.43c0,1.95-1.5,3-4.21,3H138.8v-11h4.82m-2.48,4.6h2c1.39,0,1.6-.9,1.6-1.43,0-.93-.56-1.44-1.56-1.44h-2.08v2.87m0,4.68h2.3c1.47,0,1.78-.87,1.78-1.6s-.31-1.58-1.78-1.58h-2.3v3.18m2.48-9.65h-5.2V55.61h5c3,0,4.59-1.26,4.59-3.4a2.74,2.74,0,0,0-2.17-2.79,2.45,2.45,0,0,0,1.66-2.52c0-2-1.54-3-3.92-3m-2.1,4.6V46.33h1.7c.88,0,1.18.42,1.18,1.07s-.34,1.06-1.22,1.06Zm0,4.68V50.7h1.92c1,0,1.4.45,1.4,1.21s-.36,1.23-1.4,1.23Z"/><polygon class="cls-4" points="187.81 55.43 187.52 50.13 184.27 53.81 180.91 50.12 180.61 55.43 177.86 55.43 178.53 44.02 184.27 50.33 189.91 44.02 190.59 55.43 187.81 55.43"/><path class="cls-5" d="M178.7,44.48,184,50.29l.29.32.28-.32,5.2-5.81.64,10.76H188l-.26-4.66,0-.92-.62.7-2.79,3.17-2.91-3.2-.61-.67-.05.9-.27,4.68h-2.37l.64-10.76M190,43.65a.15.15,0,0,0-.1.07l-5.66,6.33-5.75-6.33s-.07-.07-.1-.07,0,0-.06.09l-.71,11.87h3.14l.29-5L184.2,54a.09.09,0,0,0,.08,0,.12.12,0,0,0,.08,0l3-3.4.28,5h3.16l-.7-11.87c0-.06,0-.09-.06-.09"/><rect class="cls-4" x="192.69" y="44.04" width="2.83" height="11.38"/><path class="cls-5" d="M195.33,55.24h-2.45v-11h2.45Zm.38-11.38H192.5V55.61h3.21Z"/><polygon class="cls-4" points="200.24 49.36 200.24 55.43 197.61 55.43 197.61 43.86 205.38 50.15 205.38 44.05 208.02 44.05 208.02 55.62 200.24 49.36"/><path class="cls-5" d="M207.83,44.23v11l-7.16-5.77-.62-.5v6.28H197.8v-11L205,50l.62.5V44.23h2.26m-10.33-.65c-.06,0-.08.06-.08.12V55.61h3V49.75L208,55.82a.29.29,0,0,0,.18.09c.05,0,.07,0,.07-.12V43.86h-3v5.89l-7.53-6.08a.33.33,0,0,0-.16-.09"/><path class="cls-4" d="M156.72,44.89l-.57-1.15h.35c.58,0,.91-.28.91-.78a.72.72,0,0,0-.8-.73,1,1,0,0,0-.88.45l-.92-.49a2.13,2.13,0,0,1,1.87-.88c1.18,0,2,.6,2,1.49a1.43,1.43,0,0,1-1.36,1.56l-.15,0v.5Z"/><path class="cls-5" d="M156.68,41.49c1.06,0,1.78.53,1.78,1.31a1.26,1.26,0,0,1-1.2,1.38l-.31,0v.47h-.11l-.38-.77h0a1,1,0,0,0,1.1-1,.92.92,0,0,0-1-.92,1.17,1.17,0,0,0-.93.4l-.59-.32a2,2,0,0,1,1.59-.63m0-.37a2.24,2.24,0,0,0-2.13,1.14l1.25.67a.85.85,0,0,1,.81-.51c.37,0,.61.19.61.54s-.23.6-.72.6h-.57a.05.05,0,0,0-.05.07l.7,1.39a.09.09,0,0,0,.09.06h.58a.08.08,0,0,0,.08-.08v-.46a1.61,1.61,0,0,0,1.51-1.74c0-1-.86-1.68-2.16-1.68"/><path class="cls-4" d="M166.15,55.58a5.85,5.85,0,1,1,6.25-5.84,6,6,0,0,1-6.25,5.84m0-9.32a3.48,3.48,0,1,0,3.35,3.48,3.24,3.24,0,0,0-3.35-3.48"/><path class="cls-5" d="M166.15,44.09a5.66,5.66,0,1,1-6.05,5.65,5.8,5.8,0,0,1,6.05-5.65m0,9.32a3.42,3.42,0,0,0,3.54-3.67,3.54,3.54,0,1,0-7.08,0,3.42,3.42,0,0,0,3.54,3.67m0-9.69a6,6,0,1,0,6.44,6,6.15,6.15,0,0,0-6.44-6m0,9.32a3.3,3.3,0,1,1,3.16-3.3,3.06,3.06,0,0,1-3.16,3.3"/><path class="cls-4" d="M157.34,55.43,156.71,54h-4.43l-.6,1.42H149l5.64-11.56,5.62,11.56ZM153.1,52.1h2.75L154.46,49Z"/><path class="cls-5" d="M154.61,44.3l5.32,10.94h-2.46l-.54-1.2-.1-.22h-4.68l-.1.23-.5,1.19h-2.28l5.34-10.94m-1.79,8h3.32l-.23-.52-1.09-2.49-.36-.81-.34.81L153,51.77l-.22.52m1.79-8.73s-.08,0-.11.09l-5.83,12h3.13l.6-1.42h4.18l.64,1.42h3.31l-5.82-12a.11.11,0,0,0-.1-.09m-1.22,8.35,1.08-2.49,1.09,2.49Z"/><polygon class="cls-4" points="217.48 55.43 217.48 50.83 212.94 50.83 212.94 55.43 210.11 55.43 210.11 44.05 212.94 44.05 212.94 48.56 217.48 48.56 217.48 44.05 220.31 44.05 220.31 55.43 217.48 55.43"/><path class="cls-5" d="M220.12,44.23v11h-2.45v-4.6h-4.92v4.6H210.3v-11h2.45v4.51h4.92V44.23Zm.38-.37h-3.21v4.51h-4.16V43.86h-3.21V55.61h3.21V51h4.16v4.6h3.21Z"/></svg>